<svg xmlns="http://www.w3.org/2000/svg" xmlns:xlink="http://www.w3.org/1999/xlink" width="119" height="119" viewBox="0 0 119 119"><defs><linearGradient id="a" x1="-0.79" y1="0.438" x2="1.168" y2="0.5" gradientUnits="objectBoundingBox"><stop offset="0" stop-color="#8477fc"/><stop offset="1" stop-color="#cdc8fd"/></linearGradient></defs><g transform="translate(4669.551 10244.99)"><g transform="translate(-4669.108 -10244.99)"><path d="M59.5,0A59.5,59.5,0,1,1,0,59.5,59.5,59.5,0,0,1,59.5,0Z" transform="translate(-0.442)" fill="url(#a)"/><circle cx="49.5" cy="49.5" r="49.5" transform="translate(9.558 10)" fill="#fff"/></g><g transform="translate(-4642.043 -10217.495)"><path d="M23,52a3,3,0,1,0,3,3,3,3,0,0,0-3-3Zm0,4a1,1,0,1,1,1-1,1,1,0,0,1-1,1Zm23-4a3,3,0,1,0,3,3,3,3,0,0,0-3-3Zm0,4a1,1,0,1,1,1-1,1,1,0,0,1-1,1ZM39,28A13,13,0,1,0,26,15,13,13,0,0,0,39,28ZM39,4A11,11,0,1,1,28,15,11,11,0,0,1,39,4ZM59.236,14H55a1,1,0,0,0,0,2h4.236a.765.765,0,0,1,.764.764.746.746,0,0,1-.027.2L54.839,35.79A3.006,3.006,0,0,1,51.945,38H24.382l-6-22H23a1,1,0,0,0,0-2H17.838L15.571,5.686A5.011,5.011,0,0,0,10.747,2H5A3,3,0,0,0,5,8H9.983l7.1,26.052A8,8,0,0,0,18,50h.111a7,7,0,1,0,9.779,0H41.111a7,7,0,1,0,9.779,0H53a3,3,0,1,0,0-6H18a2,2,0,0,1,0-4H51.945a5.01,5.01,0,0,0,4.823-3.685L61.9,17.5A2.763,2.763,0,0,0,59.236,14ZM28,55a5,5,0,1,1-5-5,5,5,0,0,1,5,5Zm23,0a5,5,0,1,1-5-5,5,5,0,0,1,5,5ZM18,38a4,4,0,0,0,0,8H53a1,1,0,0,1,0,2H18a6,6,0,0,1,0-12h.382a1,1,0,0,0,.965-1.263l-7.635-28A1,1,0,0,0,10.747,6H5A1,1,0,0,1,5,4h5.747a3.006,3.006,0,0,1,2.895,2.211L22.309,38ZM31.293,15.707a1,1,0,1,1,1.414-1.414L37,18.586l8.293-8.293a1,1,0,1,1,1.414,1.414l-9,9a1,1,0,0,1-1.414,0Z" fill="#8477fc"/></g></g></svg>