<svg xmlns="http://www.w3.org/2000/svg" xmlns:xlink="http://www.w3.org/1999/xlink" width="119" height="119" viewBox="0 0 119 119"><defs><linearGradient id="a" x1="-0.79" y1="0.438" x2="1.168" y2="0.5" gradientUnits="objectBoundingBox"><stop offset="0" stop-color="#8477fc"/><stop offset="1" stop-color="#cdc8fd"/></linearGradient></defs><g transform="translate(-792.051 -1355.8)"><g transform="translate(792.493 1355.8)"><path d="M59.5,0A59.5,59.5,0,1,1,0,59.5,59.5,59.5,0,0,1,59.5,0Z" transform="translate(-0.442)" fill="url(#a)"/><circle cx="49.5" cy="49.5" r="49.5" transform="translate(9.558 10)" fill="#fff"/></g><g transform="translate(821.457 1384)"><path d="M48,27V22.414l.707-.707A1,1,0,0,0,49,21V17a2.994,2.994,0,0,0-1.4-2.529A2.967,2.967,0,0,0,48,13a3,3,0,1,0-6,0,2.967,2.967,0,0,0,.4,1.471A2.994,2.994,0,0,0,41,17v4a1,1,0,0,0,.293.707l.707.707V27a1,1,0,0,0,1,1h4A1,1,0,0,0,48,27ZM45,12a1,1,0,1,1-1,1A1,1,0,0,1,45,12Zm1,10v4H44V22a1,1,0,0,0-.293-.707L43,20.586V17a1,1,0,0,1,1-1h2a1,1,0,0,1,1,1v3.586l-.707.707A1,1,0,0,0,46,22Z" fill="#8477fc"/><path d="M58,19A13,13,0,1,0,45,32,13.015,13.015,0,0,0,58,19ZM34,19A11,11,0,1,1,45,30,11.013,11.013,0,0,1,34,19Z" fill="#8477fc"/><path d="M62,19a17,17,0,0,0-34,0c0,10.582,6.321,19.135,12.436,27.4l.162.22C37.765,47.474,36,49.1,36,51c0,2.851,3.869,5,9,5s9-2.149,9-5c0-1.931-1.8-3.576-4.691-4.409.138-.192.267-.374.406-.568C55.474,38.01,62,28.928,62,19ZM30,19a15,15,0,0,1,30,0c0,9.284-6.327,18.088-11.909,25.855-1.087,1.513-2.127,2.96-3.107,4.386-.962-1.349-1.964-2.7-2.939-4.024C36.122,37.206,30,28.924,30,19ZM52,51c0,1.416-2.993,3-7,3s-7-1.584-7-3c0-.912,1.338-2.062,3.872-2.642.786,1.073,1.568,2.15,2.307,3.213A1,1,0,0,0,45,52h.01a1,1,0,0,0,.822-.445c.7-1.051,1.451-2.122,2.223-3.209C50.612,48.911,52,50.094,52,51Z" fill="#8477fc"/><path d="M18.935,32A13,13,0,0,0,6.918,49.948l-2.5,2.5a1,1,0,0,0,0,1.414l.707.707L2.293,57.4a1,1,0,0,0,0,1.414l2.828,2.828a1,1,0,0,0,.707.293h0a1,1,0,0,0,.708-.295l2.82-2.833.714.714a1,1,0,0,0,1.414,0l2.495-2.495A13,13,0,1,0,18.935,32ZM5.826,59.519,4.414,58.107l2.121-2.121,1.407,1.407Zm4.952-2.12L6.535,53.157l1.344-1.344a12.613,12.613,0,0,0,4.241,4.245Zm15.935-4.621A11,11,0,1,1,29.935,45,10.925,10.925,0,0,1,26.713,52.778Z" fill="#8477fc"/><path d="M12.571,38.636a9,9,0,1,0,12.727,0A9.012,9.012,0,0,0,12.571,38.636ZM23.885,49.95a7,7,0,1,1,0-9.9,7.008,7.008,0,0,1,0,9.9Z" fill="#8477fc"/><path d="M15,44h2a2,2,0,0,1,2-2V40A4,4,0,0,0,15,44Z" fill="#8477fc"/><path d="M10.9,11.138l5.542,3.694A1,1,0,0,0,17.6,14.8l7.549-5.653,1.509,1.509a1,1,0,0,0,.707.293.987.987,0,0,0,.316-.052,1,1,0,0,0,.674-.807l.707-4.95a1,1,0,0,0-.283-.849.993.993,0,0,0-.849-.282l-4.95.707a1,1,0,0,0-.566,1.7l1.305,1.3-6.752,5.056L11.555,9.168a1,1,0,0,0-.961-.082l-9,4,.812,1.828Zm15.99-4.959-.235,1.65L25.243,6.414Z" fill="#8477fc"/><path d="M4,17v5H2v2H26V22H24V14H22v8H18V17H16v5H12V14H10v8H6V17Z" fill="#8477fc"/></g></g></svg>