<svg xmlns="http://www.w3.org/2000/svg" xmlns:xlink="http://www.w3.org/1999/xlink" width="119" height="119" viewBox="0 0 119 119"><defs><linearGradient id="a" x1="-0.79" y1="0.438" x2="1.168" y2="0.5" gradientUnits="objectBoundingBox"><stop offset="0" stop-color="#8477fc"/><stop offset="1" stop-color="#cdc8fd"/></linearGradient></defs><g transform="translate(-375.051 -1369.234)"><g transform="translate(375.493 1369.234)"><path d="M59.5,0A59.5,59.5,0,1,1,0,59.5,59.5,59.5,0,0,1,59.5,0Z" transform="translate(-0.442)" fill="url(#a)"/><circle cx="49.5" cy="49.5" r="49.5" transform="translate(9.558 10)" fill="#fff"/></g><g transform="translate(403.744 1403)"><g transform="translate(0 0)"><path d="M56.423,59.393H10.884A6.892,6.892,0,0,1,4,52.509V14.384A6.892,6.892,0,0,1,10.884,7.5H56.423a6.892,6.892,0,0,1,6.884,6.884V52.509A6.892,6.892,0,0,1,56.423,59.393ZM10.884,10.677a3.711,3.711,0,0,0-3.707,3.707V52.509a3.711,3.711,0,0,0,3.707,3.707H56.423a3.711,3.711,0,0,0,3.707-3.707V14.384a3.711,3.711,0,0,0-3.707-3.707Z" transform="translate(-4 -7.5)" fill="#8477fc"/></g><g transform="translate(7.291 18.221)"><path d="M49.782,50.964H14.594a3.706,3.706,0,0,1-3-5.881L25.557,25.8a2.648,2.648,0,0,1,4.288,0l7.419,10.242,2.342-3.233a2.646,2.646,0,0,1,4.29,0l8.889,12.272a3.707,3.707,0,0,1-3,5.881ZM27.7,28.255,14.165,46.947a.528.528,0,0,0,.429.839H49.782a.529.529,0,0,0,.429-.84L41.749,35.263,39.405,38.5a2.644,2.644,0,0,1-4.288-.005Z" transform="translate(-10.884 -24.705)" fill="#8477fc"/></g><g transform="translate(37.067 6.354)"><path d="M46.943,29.386a7.943,7.943,0,1,1,7.943-7.943A7.951,7.951,0,0,1,46.943,29.386Zm0-12.709a4.766,4.766,0,1,0,4.766,4.766A4.772,4.772,0,0,0,46.943,16.677Z" transform="translate(-39 -13.5)" fill="#8477fc"/></g></g></g></svg>