<svg xmlns="http://www.w3.org/2000/svg" xmlns:xlink="http://www.w3.org/1999/xlink" width="119" height="119" viewBox="0 0 119 119"><defs><linearGradient id="a" x1="-0.79" y1="0.438" x2="1.168" y2="0.5" gradientUnits="objectBoundingBox"><stop offset="0" stop-color="#8477fc"/><stop offset="1" stop-color="#cdc8fd"/></linearGradient></defs><g transform="translate(-6171.375 10183.464)"><g transform="translate(6171.817 -10183.464)"><path d="M59.5,0A59.5,59.5,0,1,1,0,59.5,59.5,59.5,0,0,1,59.5,0Z" transform="translate(-0.442)" fill="url(#a)"/><circle cx="49.5" cy="49.5" r="49.5" transform="translate(9.558 10)" fill="#fff"/></g><g transform="translate(6204.282 -10154.195)"><path d="M46.086,60.461H8.3a6.307,6.307,0,0,1-6.3-6.3V6.3A6.307,6.307,0,0,1,8.3,0H46.086a6.307,6.307,0,0,1,6.3,6.3V54.163A6.307,6.307,0,0,1,46.086,60.461ZM8.3,2.519A3.783,3.783,0,0,0,4.519,6.3V54.163A3.783,3.783,0,0,0,8.3,57.942H46.086a3.783,3.783,0,0,0,3.779-3.779V6.3a3.783,3.783,0,0,0-3.779-3.779Z" transform="translate(-2)" fill="#8477fc"/><path d="M21.375,13.038a1.26,1.26,0,0,1-1.26-1.26v-1.26H7.519v1.26a1.26,1.26,0,0,1-2.519,0V9.26A1.26,1.26,0,0,1,6.26,8H21.375a1.26,1.26,0,0,1,1.26,1.26v2.519A1.26,1.26,0,0,1,21.375,13.038Z" transform="translate(2.558 12.154)" fill="#8477fc"/><path d="M9.26,25.635A1.26,1.26,0,0,1,8,24.375V9.26a1.26,1.26,0,1,1,2.519,0V24.375A1.26,1.26,0,0,1,9.26,25.635Z" transform="translate(7.115 12.154)" fill="#8477fc"/><path d="M13.3,16.519H8.26A1.26,1.26,0,0,1,8.26,14H13.3a1.26,1.26,0,0,1,0,2.519Z" transform="translate(5.596 21.269)" fill="#8477fc"/><path d="M25.336,10.519H15.26A1.26,1.26,0,0,1,15.26,8H25.336a1.26,1.26,0,1,1,0,2.519Z" transform="translate(16.231 12.154)" fill="#8477fc"/><path d="M25.336,13.519H15.26a1.26,1.26,0,0,1,0-2.519H25.336a1.26,1.26,0,1,1,0,2.519Z" transform="translate(16.231 16.711)" fill="#8477fc"/><path d="M25.336,16.519H15.26a1.26,1.26,0,0,1,0-2.519H25.336a1.26,1.26,0,1,1,0,2.519Z" transform="translate(16.231 21.269)" fill="#8477fc"/><path d="M39.009,19.519H6.26A1.26,1.26,0,1,1,6.26,17h32.75a1.26,1.26,0,1,1,0,2.519Z" transform="translate(2.558 25.827)" fill="#8477fc"/><path d="M39.009,22.519H6.26A1.26,1.26,0,1,1,6.26,20h32.75a1.26,1.26,0,1,1,0,2.519Z" transform="translate(2.558 30.384)" fill="#8477fc"/></g></g></svg>