<svg xmlns="http://www.w3.org/2000/svg" xmlns:xlink="http://www.w3.org/1999/xlink" width="119" height="119" viewBox="0 0 119 119"><defs><linearGradient id="a" x1="-0.79" y1="0.438" x2="1.168" y2="0.5" gradientUnits="objectBoundingBox"><stop offset="0" stop-color="#8477fc"/><stop offset="1" stop-color="#cdc8fd"/></linearGradient></defs><g transform="translate(-691.008 -1362.949)"><g transform="translate(691.45 1362.949)"><path d="M59.5,0A59.5,59.5,0,1,1,0,59.5,59.5,59.5,0,0,1,59.5,0Z" transform="translate(-0.442)" fill="url(#a)"/><circle cx="49.5" cy="49.5" r="49.5" transform="translate(9.558 10)" fill="#fff"/></g><g transform="translate(723.722 1396.811)"><path d="M57.1,6H8.125A3.125,3.125,0,0,0,5,9.125v35.9a3.125,3.125,0,0,0,3.125,3.125H57.1a3.125,3.125,0,0,0,3.125-3.125V9.125A3.125,3.125,0,0,0,57.1,6Zm.218,39.023a.218.218,0,0,1-.218.218H8.125a.218.218,0,0,1-.218-.218V9.125a.218.218,0,0,1,.218-.218H57.1a.218.218,0,0,1,.218.218Z" transform="translate(-5 -6)" fill="#8477fc"/><path d="M58.774,40.907H16.627V39.453A1.453,1.453,0,0,0,15.173,38H9.36a1.453,1.453,0,0,0-1.453,1.453v1.453H6.453a1.453,1.453,0,0,0,0,2.907H7.907v1.453A1.453,1.453,0,0,0,9.36,46.72h5.813a1.453,1.453,0,0,0,1.453-1.453V43.813H58.774a1.453,1.453,0,0,0,0-2.907ZM13.72,43.813H10.813V40.907H13.72Z" transform="translate(-5 8.507)" fill="#8477fc"/><path d="M38.074,23.091,19.18,12.191A1.453,1.453,0,0,0,17,13.455v21.8a1.453,1.453,0,0,0,2.18,1.264l18.894-10.9a1.453,1.453,0,0,0,0-2.514Zm-18.167,9.65V15.969L34.44,24.355Z" transform="translate(0.44 -3.282)" fill="#8477fc"/></g></g></svg>