<svg xmlns="http://www.w3.org/2000/svg" xmlns:xlink="http://www.w3.org/1999/xlink" width="119" height="119" viewBox="0 0 119 119"><defs><linearGradient id="a" x1="-0.79" y1="0.438" x2="1.168" y2="0.5" gradientUnits="objectBoundingBox"><stop offset="0" stop-color="#8477fc"/><stop offset="1" stop-color="#cdc8fd"/></linearGradient></defs><g transform="translate(-5855.418 10177.179)"><g transform="translate(5855.86 -10177.179)"><path d="M59.5,0A59.5,59.5,0,1,1,0,59.5,59.5,59.5,0,0,1,59.5,0Z" transform="translate(-0.442)" fill="url(#a)"/><circle cx="49.5" cy="49.5" r="49.5" transform="translate(9.558 10)" fill="#fff"/></g><g transform="translate(5895.109 -10144.666)"><path d="M20.211,1.25C13.021,1.25,7.25,6.806,7.25,13.581V31.213c0,6.775,5.771,12.331,12.961,12.331s12.961-5.556,12.961-12.331V13.581C33.172,6.806,27.4,1.25,20.211,1.25Zm0,38.2c-4.865,0-8.868-3.654-8.868-8.238V13.581c0-4.584,4-8.238,8.868-8.238S29.079,9,29.079,13.581V31.213C29.079,35.8,25.076,39.451,20.211,39.451Z" transform="translate(-0.428 -1.25)" fill="#8477fc" fill-rule="evenodd"/><path d="M24.533,30.715c-8.579,0-15.69-5.7-15.69-12.961V12.3a2.047,2.047,0,0,0-4.093,0v5.457c0,9.318,8.77,17.054,19.783,17.054s19.783-7.736,19.783-17.054V12.3a2.047,2.047,0,0,0-4.093,0v5.457C40.223,25.015,33.112,30.715,24.533,30.715Z" transform="translate(-4.75 14.308)" fill="#8477fc" fill-rule="evenodd"/><path d="M11.25,19.8v9.55a2.047,2.047,0,1,0,4.093,0V19.8a2.047,2.047,0,0,0-4.093,0Z" transform="translate(6.486 27.273)" fill="#8477fc" fill-rule="evenodd"/><path d="M26.669,21.25H10.3a2.046,2.046,0,1,0,0,4.093H26.669a2.046,2.046,0,1,0,0-4.093Z" transform="translate(1.3 33.323)" fill="#8477fc" fill-rule="evenodd"/></g></g></svg>