<svg xmlns="http://www.w3.org/2000/svg" width="70.035" height="65.966" viewBox="0 0 70.035 65.966"><path d="M80.935,75.712a1.062,1.062,0,0,1,.071,1.5L72.658,86.4a1.061,1.061,0,0,1-1.466.1l-4.349-3.631a1.062,1.062,0,0,1,1.361-1.63l3.567,2.98,7.663-8.431a1.065,1.065,0,0,1,1.5-.072Zm-7.028,17.5A11.716,11.716,0,1,0,62.192,81.492,11.73,11.73,0,0,0,73.907,93.209Zm0-25.555A13.838,13.838,0,1,0,87.746,81.492,13.854,13.854,0,0,0,73.907,67.654ZM95.871,97.187a58.021,58.021,0,0,0,7.149-11.024c-15.32,16.943-42.94,16.924-58.224,0,5.807,11.9,17.858,23.6,29.112,28.729C81.45,111.454,89.63,104.867,95.871,97.187Zm8.18-15.695A36.628,36.628,0,0,0,73.907,66.239,36.627,36.627,0,0,0,43.766,81.492,36.622,36.622,0,0,0,73.907,96.745,36.623,36.623,0,0,0,104.05,81.492ZM59.333,53.271a18.341,18.341,0,0,0-18.32,18.319,29.119,29.119,0,0,0,1.3,8.289,37.862,37.862,0,0,1,12.9-11.159C72.22,59.7,94.145,64.206,105.5,79.88a29.055,29.055,0,0,0,1.3-8.289,18.319,18.319,0,0,0-32.1-12.073,1.06,1.06,0,0,1-1.6,0,18.324,18.324,0,0,0-13.777-6.246Zm29.15-2.121a20.446,20.446,0,0,0-14.575,6.11A20.441,20.441,0,0,0,38.89,71.591c0,8.318,4.053,17.883,11.408,26.935,6.561,8.075,15.227,14.991,23.181,18.5a1.072,1.072,0,0,0,.857,0c7.953-3.51,16.62-10.427,23.182-18.5,7.356-9.052,11.407-18.617,11.407-26.935A20.464,20.464,0,0,0,88.483,51.15Z" transform="translate(-38.89 -51.15)" fill="#728fb1" fill-rule="evenodd"/></svg>