<svg xmlns="http://www.w3.org/2000/svg" width="84.928" height="66.311" viewBox="0 0 84.928 66.311"><path d="M137.29,144.291H134.63a1.244,1.244,0,1,0,0,2.488h2.659a4.079,4.079,0,0,1,4.074,4.074v23.933a4.079,4.079,0,0,1-4.074,4.074H94.741a4.079,4.079,0,0,1-4.075-4.074V150.853a4.079,4.079,0,0,1,4.075-4.074h34.571a1.244,1.244,0,1,0,0-2.488H94.741a6.57,6.57,0,0,0-6.563,6.562v23.933a6.57,6.57,0,0,0,6.563,6.562H137.29a6.57,6.57,0,0,0,6.563-6.562V150.853A6.57,6.57,0,0,0,137.29,144.291Z" transform="translate(-73.552 -129.665)" fill="#728fb1"/><path d="M159.091,217.726a1.477,1.477,0,0,0-1.371-.919h0a1.478,1.478,0,0,0-1.371.921l-.011.028-3.95,10.371a1.244,1.244,0,0,0,2.325.886l.679-1.782h4.629l.671,1.778a1.244,1.244,0,0,0,2.328-.878L159.1,217.76l-.013-.034Zm-2.753,7.017,1.377-3.617,1.365,3.617Z" transform="translate(-127.042 -190.153)" fill="#728fb1"/><path d="M234.361,219.294a3.994,3.994,0,0,1,2.244.685A1.244,1.244,0,1,0,238,217.917a6.5,6.5,0,1,0-3.637,11.9,5.383,5.383,0,0,0,4.267-1.929,1.244,1.244,0,0,0-1.907-1.6,2.9,2.9,0,0,1-2.36,1.04,4.015,4.015,0,1,1,0-8.031Z" transform="translate(-190.063 -190.152)" fill="#728fb1"/><path d="M309.671,218.051a1.244,1.244,0,0,0,1.244,1.244h1.649v9.275a1.244,1.244,0,0,0,2.488,0V219.3h1.672a1.244,1.244,0,1,0,0-2.488h-5.809A1.244,1.244,0,0,0,309.671,218.051Z" transform="translate(-258.305 -190.153)" fill="#728fb1"/><path d="M438.066,56.113H427.429a1.244,1.244,0,0,0,0,2.488h7.634l-9.843,9.843a1.244,1.244,0,1,0,1.759,1.759l9.843-9.843v7.634a1.244,1.244,0,0,0,2.488,0V57.357A1.244,1.244,0,0,0,438.066,56.113Z" transform="translate(-354.383 -56.113)" fill="#728fb1"/><path d="M4.247,58.6h7.634a1.244,1.244,0,1,0,0-2.488H1.244A1.244,1.244,0,0,0,0,57.357V67.994a1.244,1.244,0,0,0,2.488,0V60.36L12.331,70.2a1.244,1.244,0,1,0,1.759-1.759Z" transform="translate(0 -56.113)" fill="#728fb1"/><path d="M12.331,369.106,2.488,378.95v-7.634a1.244,1.244,0,0,0-2.488,0v10.637A1.244,1.244,0,0,0,1.244,383.2H11.881a1.244,1.244,0,1,0,0-2.488H4.247l9.843-9.843a1.244,1.244,0,0,0-1.759-1.76Z" transform="translate(0 -316.887)" fill="#728fb1"/><path d="M438.066,370.071a1.244,1.244,0,0,0-1.244,1.244v7.634l-9.843-9.843a1.244,1.244,0,0,0-1.759,1.759l9.843,9.843h-7.634a1.244,1.244,0,1,0,0,2.488h10.637a1.244,1.244,0,0,0,1.244-1.244V371.314A1.244,1.244,0,0,0,438.066,370.071Z" transform="translate(-354.383 -316.885)" fill="#728fb1"/></svg>