<svg xmlns="http://www.w3.org/2000/svg" width="73.257" height="64.534" viewBox="0 0 73.257 64.534"><path d="M71.024,8H8.233A5.238,5.238,0,0,0,3,13.233v41.86a5.238,5.238,0,0,0,5.233,5.233H49.371l11.7,11.7a1.744,1.744,0,0,0,2.977-1.233V60.325h6.977a5.238,5.238,0,0,0,5.233-5.233V13.233A5.238,5.238,0,0,0,71.024,8Zm1.744,47.093a1.746,1.746,0,0,1-1.744,1.744H62.3a1.744,1.744,0,0,0-1.744,1.744v8l-9.232-9.232a1.745,1.745,0,0,0-1.233-.511H8.233a1.746,1.746,0,0,1-1.744-1.744V13.233a1.746,1.746,0,0,1,1.744-1.744H71.024a1.746,1.746,0,0,1,1.744,1.744ZM39.628,39.4a5.233,5.233,0,1,1,5.233-5.233A5.238,5.238,0,0,1,39.628,39.4Zm0-6.977a1.744,1.744,0,1,0,1.744,1.744A1.746,1.746,0,0,0,39.628,32.418ZM23.595,18.129a1.744,1.744,0,0,0-2.466-2.466,26.161,26.161,0,0,0,0,37A1.744,1.744,0,1,0,23.6,50.2a22.674,22.674,0,0,1,0-32.066Zm7.4,7.4a1.744,1.744,0,1,0-2.466-2.466,15.7,15.7,0,0,0,0,22.2A1.744,1.744,0,1,0,31,42.8a12.209,12.209,0,0,1,0-17.266ZM62.3,34.163A22.523,22.523,0,0,1,55.662,50.2a1.744,1.744,0,0,0,2.466,2.466,26.161,26.161,0,0,0,0-37,1.744,1.744,0,1,0-2.466,2.466A22.521,22.521,0,0,1,62.3,34.163Zm-10.465,0A12.129,12.129,0,0,1,48.262,42.8a1.744,1.744,0,1,0,2.466,2.466,15.7,15.7,0,0,0,0-22.2,1.744,1.744,0,1,0-2.466,2.466A12.129,12.129,0,0,1,51.838,34.163Z" transform="translate(-3 -8)" fill="#728fb1"/></svg>