<svg xmlns="http://www.w3.org/2000/svg" width="74.68" height="74.679" viewBox="0 0 74.68 74.679"><path d="M37.34,0A37.339,37.339,0,1,0,74.68,37.339,37.382,37.382,0,0,0,37.34,0Zm0,72.345A35.006,35.006,0,1,1,72.347,37.339,35.046,35.046,0,0,1,37.34,72.345Z" fill="#728fb1"/><path d="M19.167,29.669A1.166,1.166,0,0,0,20.334,28.5v-7A1.167,1.167,0,0,1,21.5,20.334h7A1.167,1.167,0,1,0,28.5,18h-7A3.5,3.5,0,0,0,18,21.5v7A1.166,1.166,0,0,0,19.167,29.669Z" transform="translate(3.004 3.003)" fill="#728fb1"/><path d="M44.168,18h-7a1.167,1.167,0,1,0,0,2.334h7A1.167,1.167,0,0,1,45.335,21.5v7a1.167,1.167,0,0,0,2.334,0v-7A3.5,3.5,0,0,0,44.168,18Z" transform="translate(6.008 3.003)" fill="#728fb1"/><path d="M46.5,36a1.166,1.166,0,0,0-1.167,1.167v7a1.167,1.167,0,0,1-1.167,1.167h-7a1.167,1.167,0,1,0,0,2.334h7a3.5,3.5,0,0,0,3.5-3.5v-7A1.166,1.166,0,0,0,46.5,36Z" transform="translate(6.008 6.007)" fill="#728fb1"/><path d="M28.5,45.335h-7a1.167,1.167,0,0,1-1.167-1.167v-7a1.167,1.167,0,0,0-2.334,0v7a3.5,3.5,0,0,0,3.5,3.5h7a1.167,1.167,0,1,0,0-2.334Z" transform="translate(3.004 6.007)" fill="#728fb1"/><path d="M32.668,28a4.667,4.667,0,1,0,4.668,4.667A4.672,4.672,0,0,0,32.668,28Zm0,7A2.334,2.334,0,1,1,35,32.667,2.336,2.336,0,0,1,32.668,35Z" transform="translate(4.673 4.672)" fill="#728fb1"/></svg>