<svg xmlns="http://www.w3.org/2000/svg" width="76.431" height="72.568" viewBox="0 0 76.431 72.568"><path d="M65.325,47.062l.377-.807a.875.875,0,0,0-1.586-.741l-.586,1.256a.875.875,0,0,0,.077.874c3.6,5.108.224,9.717.119,10.7a8.205,8.205,0,0,0,.138,2.807c.546,2.472.166,3.461-.109,3.83a.73.73,0,0,1-.524.327c-2.7.167-2.986-5.714-2.782-8.38a.85.85,0,0,0-.03-.246.871.871,0,0,0-1.649-.476L51.431,71a1.231,1.231,0,0,1-2.264-.158,1.215,1.215,0,0,1,.063-.933l6.089-12.229a.875.875,0,1,0-1.561-.791L47.641,68.944a1.229,1.229,0,0,1-2.2-1.088L51.552,55.8a.875.875,0,1,0-1.561-.791l-5.31,10.4a1.231,1.231,0,0,1-2.264-.158,1.209,1.209,0,0,1,.059-.924c1.858-3.631,4.13-8.019,5.307-10.4a.875.875,0,1,0-1.557-.8l-4.5,8.753a1.228,1.228,0,0,1-2.2-1.084c4.791-9.245,5.226-10.243,8.171-16.249a3.552,3.552,0,0,1,1.8-1.688l3.674-1.506a.876.876,0,0,0-.664-1.62l-3.681,1.51a5.317,5.317,0,0,0-2.695,2.53c-6.719,13.734-3,5.991-8.165,16.235a2.981,2.981,0,0,0,2.713,4.3,2.959,2.959,0,0,0,2.961,3.527,2.953,2.953,0,0,0,3.838,3.367A2.973,2.973,0,0,0,53,71.778L58.723,60.3c.16,2.015.638,4.386,1.929,5.713a2.966,2.966,0,0,0,4.436.109c.869-1.072,1.032-2.87.485-5.344a6.5,6.5,0,0,1-.122-2.15c.3-1.007,3.429-6.038-.126-11.561Z" transform="translate(0.738 -0.853)" fill="#728fb1"/><path d="M72.364,30.088l-8.293-3.759a.875.875,0,1,0-.722,1.593l8.271,3.749a.382.382,0,0,1,.177.507L65.533,44.892a.383.383,0,0,1-.51.177L52.237,38.829a.383.383,0,0,1-.174-.513l1.973-4.086a.875.875,0,1,0-1.576-.761l-1.971,4.083a2.13,2.13,0,0,0,.981,2.85l12.786,6.239a2.131,2.131,0,0,0,2.849-.979l6.263-12.714A2.128,2.128,0,0,0,72.364,30.088Z" transform="translate(2.846 -3.093)" fill="#728fb1"/><path d="M22.505,55.785,21.79,54.6a.906.906,0,0,0-.769-.424c-6.288.148-8.139-5.2-8.945-5.873a8.165,8.165,0,0,0-2.4-1.453c-2.356-.926-2.964-1.794-3.118-2.229A.73.73,0,0,1,6.576,44a1.62,1.62,0,0,1,1.17-.809c2.2-.4,6.043,2.157,7.335,3.178a.859.859,0,0,0,.281.143.861.861,0,0,0,.5.18.876.876,0,0,0,.757-1.314L8.443,31.035a1.228,1.228,0,0,1,2.134-1.217L17.324,41.7a.875.875,0,1,0,1.528-.852L12.263,29.037a1.228,1.228,0,0,1,2.131-1.222l6.587,11.8a.875.875,0,1,0,1.528-.852L16.841,28.549a1.228,1.228,0,0,1,2.129-1.225c5.244,9.471,4.622,8.493,4.872,8.768l.792,1.439a.875.875,0,1,0,1.534-.843L21.42,28.063a1.228,1.228,0,0,1,2.13-1.224C29.659,38,29.444,37.426,32.47,42.688a3.56,3.56,0,0,1,.4,2.434l-.8,3.889a.875.875,0,0,0,1.714.353l.8-3.9a5.321,5.321,0,0,0-.6-3.65l-3.857-6.681-5.055-9.154A2.958,2.958,0,0,0,20,25.841a2.972,2.972,0,0,0-3.567-.482,2.941,2.941,0,0,0-1.011.97,2.966,2.966,0,0,0-4.957,1.294A2.97,2.97,0,0,0,6.921,31.9l6.33,11.159c-1.761-.992-3.994-1.92-5.818-1.587a2.962,2.962,0,0,0-2.567,3.618c.4,1.32,1.806,2.459,4.164,3.388a6.456,6.456,0,0,1,1.852,1.1c.067.081.155.231.276.426,1,1.608,3.621,5.8,9.387,5.922l.46.763a.875.875,0,1,0,1.5-.9Z" transform="translate(-4.75 -3.389)" fill="#728fb1"/><path d="M35.366,48.681l-.305-.532a2.134,2.134,0,0,0-2.912-.777L19.836,54.5a2.133,2.133,0,0,0-.779,2.909L26.109,69.7a2.131,2.131,0,0,0,2.912.777l9.136-5.348a.875.875,0,1,0-.885-1.509l-9.127,5.341a.379.379,0,0,1-.52-.136L20.573,56.534a.38.38,0,0,1,.139-.52l12.313-7.126a.379.379,0,0,1,.519.136l4.682,7.485a.875.875,0,0,0,1.481-.932Z" transform="translate(-2.41 0.384)" fill="#728fb1"/><path d="M62.764,14.759l-12.836.012c1.731-1.044,3.639-2.531,4.248-4.279A2.963,2.963,0,0,0,52.29,6.474c-1.347-.3-3.03.362-5,1.954A6.485,6.485,0,0,1,45.424,9.5c-.1.018-.277.021-.508.031-1.894.081-6.836.292-9.778,5.251l-.891.024a.875.875,0,0,0,.023,1.75H34.3l1.385-.038a.878.878,0,0,0,.747-.46c2.985-5.548,8.534-4.52,9.517-4.891A8.172,8.172,0,0,0,48.394,9.79c1.967-1.6,3.024-1.691,3.474-1.616A.731.731,0,0,1,52.4,8.5a1.617,1.617,0,0,1,.127,1.416c-.737,2.121-4.855,4.2-6.379,4.818a.849.849,0,0,0-.2.136.871.871,0,0,0,.3,1.688l16.523-.047a1.228,1.228,0,0,1,.005,2.456c-16.319.032-12.213.029-13.665.021a.875.875,0,0,0-.005,1.75l13.522.082a1.228,1.228,0,0,1,.011,2.456c-4.324-.048-12.993-.078-13.519-.081a.875.875,0,0,0-.005,1.75l11.68.1h0A1.228,1.228,0,0,1,60.8,27.5c-11.033-.132-9.627-.075-11.683-.1a.875.875,0,0,0-.01,1.75l9.846.116a1.232,1.232,0,0,1,.868,2.1,1.213,1.213,0,0,1-.854.36c-.117,0-20.785-.145-18.188-.046a3.556,3.556,0,0,1-2.313-.851l-2.99-2.613a.875.875,0,1,0-1.152,1.317l3,2.619a5.321,5.321,0,0,0,3.468,1.279c16.647-.141,5.69.013,18.173.046a2.966,2.966,0,0,0,2.623-4.347A2.954,2.954,0,0,0,63.42,24.9a2.965,2.965,0,0,0,1.315-4.949,2.973,2.973,0,0,0-1.971-5.194Z" transform="translate(0.03 -6.404)" fill="#728fb1"/><path d="M28.7,30.018h4.587a2.1,2.1,0,0,0,2.1-2.1l-.092-13.811A2.133,2.133,0,0,0,33.164,12h-.021l-15.6.081a2.13,2.13,0,0,0-2.111,2.148l.051,8.815a.876.876,0,0,0,.875.871h.005a.875.875,0,0,0,.87-.88l-.051-8.82a.381.381,0,0,1,.374-.384l15.6-.081h0a.382.382,0,0,1,.381.377l.092,13.794a.349.349,0,0,1-.349.349H28.7a.875.875,0,1,0,0,1.75Z" transform="translate(-2.967 -5.471)" fill="#728fb1"/><path d="M27.028,18.353a.875.875,0,0,0,.875-.875V14.986a.875.875,0,0,0-1.75,0v2.492A.875.875,0,0,0,27.028,18.353Z" transform="translate(-1.179 -5.118)" fill="#728fb1"/><path d="M59.614,37.048a.875.875,0,0,0,.437,1.158c2.309,1.015,2.3,1.1,2.631,1.1a.876.876,0,0,0,.361-1.673l-2.271-1.027a.878.878,0,0,0-1.158.438Z" transform="translate(4.392 -1.377)" fill="#728fb1"/><path d="M25.146,54.721l-2.177,1.215a.876.876,0,0,0,.854,1.529L26,56.25a.876.876,0,0,0-.854-1.529Z" transform="translate(-1.785 1.639)" fill="#728fb1"/></svg>