<svg xmlns="http://www.w3.org/2000/svg" width="66.098" height="66.827" viewBox="0 0 66.098 66.827"><g transform="translate(0 0)"><path d="M85.327,181.506H60.269a.979.979,0,1,0,0,1.958H85.327a.979.979,0,1,0,0-1.958Z" transform="translate(-51.916 -157.815)" fill="#acda53"/><path d="M85.327,234.2H60.269a.979.979,0,1,0,0,1.958H85.327a.979.979,0,1,0,0-1.958Z" transform="translate(-51.916 -203.634)" fill="#acda53"/><path d="M85.327,286.9H60.269a.979.979,0,1,0,0,1.958H85.327a.979.979,0,1,0,0-1.958Z" transform="translate(-51.916 -249.451)" fill="#acda53"/><path d="M86.306,340.573a.979.979,0,0,0-.979-.979H60.269a.979.979,0,0,0,0,1.958H85.327A.979.979,0,0,0,86.306,340.573Z" transform="translate(-51.916 -295.27)" fill="#acda53"/><path d="M60.269,416.821a.979.979,0,1,0,0,1.958H72.83a.979.979,0,1,0,0-1.958Z" transform="translate(-51.916 -362.417)" fill="#acda53"/><path d="M182.089,57.077V53.9a2.2,2.2,0,0,0-2.194-2.194H159.8A2.2,2.2,0,0,0,157.6,53.9v3.176a2.2,2.2,0,0,0,2.194,2.194h1.7a.979.979,0,0,0,0-1.958h-1.7a.237.237,0,0,1-.237-.237V53.9a.237.237,0,0,1,.237-.237h20.1a.237.237,0,0,1,.237.237v3.176a.237.237,0,0,1-.237.237H166.071a.979.979,0,1,0,0,1.958h13.823A2.2,2.2,0,0,0,182.089,57.077Z" transform="translate(-137.398 -44.958)" fill="#acda53"/><path d="M54.8,59.687a.979.979,0,0,0-.979.979v1.318a2.889,2.889,0,0,1-2.886,2.885H7.637a2.889,2.889,0,0,1-2.885-2.885V14.935a2.9,2.9,0,0,1,.069-.622h8.912a3.378,3.378,0,0,0,3.375-3.375V2.027a2.9,2.9,0,0,1,.622-.069h33.21a2.889,2.889,0,0,1,2.886,2.885V17.875a.979.979,0,0,0,1.958,0V4.843A4.848,4.848,0,0,0,50.939,0H17.729A4.812,4.812,0,0,0,14.3,1.418L4.212,11.511a4.811,4.811,0,0,0-1.418,3.425V61.984a4.848,4.848,0,0,0,4.843,4.843h43.3a4.849,4.849,0,0,0,4.843-4.843V60.666a.979.979,0,0,0-.979-.979ZM15.15,3.342v7.6a1.419,1.419,0,0,1-1.417,1.417h-7.6Z" transform="translate(-2.794 0)" fill="#acda53"/><path d="M320.825,178.015a3.914,3.914,0,0,0-1.913-5.888,1.945,1.945,0,0,1-1.295-1.782,3.914,3.914,0,0,0-5.008-3.639,1.945,1.945,0,0,1-2.1-.681,3.914,3.914,0,0,0-6.191,0,1.945,1.945,0,0,1-2.095.681,3.914,3.914,0,0,0-5.008,3.639,1.945,1.945,0,0,1-1.295,1.782,3.914,3.914,0,0,0-1.913,5.888,1.945,1.945,0,0,1,0,2.2,3.914,3.914,0,0,0,1.913,5.888,1.945,1.945,0,0,1,1.295,1.782,3.914,3.914,0,0,0,3.38,3.759v8.912a2.077,2.077,0,0,0,3.167,1.769l3.59-2.21a.1.1,0,0,1,.126,0l3.59,2.21a2.078,2.078,0,0,0,3.167-1.769v-8.912a3.913,3.913,0,0,0,3.38-3.759,1.945,1.945,0,0,1,1.295-1.782,3.914,3.914,0,0,0,1.913-5.888A1.944,1.944,0,0,1,320.825,178.015ZM312.1,200.66l-3.59-2.21a2.077,2.077,0,0,0-2.178,0l-3.59,2.21a.119.119,0,0,1-.183-.1v-9.1a1.942,1.942,0,0,1,1.766.746,3.914,3.914,0,0,0,6.191,0,1.942,1.942,0,0,1,1.766-.746v9.1A.119.119,0,0,1,312.1,200.66Zm7.11-19.34a1.956,1.956,0,0,1-.956,2.943,3.891,3.891,0,0,0-2.59,3.566,1.93,1.93,0,0,1-.7,1.445,1.949,1.949,0,0,1-1.8.374,3.892,3.892,0,0,0-4.192,1.362,1.956,1.956,0,0,1-3.094,0,3.889,3.889,0,0,0-3.083-1.521,3.952,3.952,0,0,0-1.108.159,1.948,1.948,0,0,1-1.8-.374,1.928,1.928,0,0,1-.7-1.445,3.892,3.892,0,0,0-2.591-3.566,1.956,1.956,0,0,1-.956-2.943,3.892,3.892,0,0,0,0-4.407,1.956,1.956,0,0,1,.956-2.943,3.892,3.892,0,0,0,2.591-3.566,1.956,1.956,0,0,1,2.5-1.819,3.892,3.892,0,0,0,4.192-1.362,1.956,1.956,0,0,1,3.094,0,3.892,3.892,0,0,0,4.192,1.362,1.956,1.956,0,0,1,2.5,1.819,3.892,3.892,0,0,0,2.591,3.566,1.956,1.956,0,0,1,.956,2.943A3.892,3.892,0,0,0,319.207,181.32Z" transform="translate(-255.409 -143.035)" fill="#acda53"/><path d="M346.618,213.583a8.2,8.2,0,1,0,8.2,8.2A8.213,8.213,0,0,0,346.618,213.583Zm0,14.45a6.246,6.246,0,1,1,6.246-6.246A6.253,6.253,0,0,1,346.618,228.033Z" transform="translate(-294.608 -185.706)" fill="#acda53"/></g></svg>