<svg xmlns="http://www.w3.org/2000/svg" width="85" height="90.333" viewBox="0 0 85 90.333"><g transform="translate(0 0.411)"><path d="M72.259,12.22c-3.295,0-4.921-2.942-6.227-5.306-1.323-2.392-2.22-3.859-3.907-3.859s-2.582,1.466-3.9,3.859C56.917,9.278,55.291,12.22,52,12.22s-4.921-2.942-6.227-5.306c-1.322-2.392-2.218-3.859-3.9-3.859s-2.58,1.466-3.9,3.859c-1.306,2.365-2.933,5.306-6.226,5.306s-4.919-2.942-6.224-5.306c-1.322-2.392-2.217-3.859-3.9-3.859s-2.578,1.466-3.9,3.859c-1.306,2.365-2.931,5.306-6.224,5.306S6.574,9.278,5.267,6.913c-1.322-2.392-2.217-3.859-3.9-3.859A1.453,1.453,0,0,1,0,1.527,1.454,1.454,0,0,1,1.367,0C4.658,0,6.285,2.943,7.591,5.308c1.32,2.391,2.217,3.857,3.9,3.857s2.578-1.466,3.9-3.857C16.7,2.943,18.324,0,21.616,0s4.918,2.943,6.222,5.306c1.322,2.393,2.217,3.859,3.9,3.859s2.58-1.466,3.9-3.859C36.948,2.943,38.574,0,41.867,0s4.919,2.943,6.227,5.306C49.415,7.7,50.311,9.165,52,9.165s2.58-1.466,3.9-3.859C57.2,2.943,58.832,0,62.125,0s4.922,2.943,6.229,5.306c1.323,2.393,2.22,3.859,3.9,3.859S74.842,7.7,76.166,5.306C77.472,2.943,79.1,0,82.394,0A1.453,1.453,0,0,1,83.76,1.527a1.452,1.452,0,0,1-1.365,1.527c-1.687,0-2.583,1.466-3.907,3.859C77.181,9.278,75.555,12.22,72.259,12.22Z" transform="translate(83.76 51.336) rotate(180)" fill="#ff966d"/><path d="M72.259,12.22c-3.295,0-4.921-2.942-6.227-5.306-1.323-2.392-2.22-3.859-3.907-3.859s-2.582,1.466-3.9,3.859C56.917,9.278,55.291,12.22,52,12.22s-4.921-2.942-6.227-5.306c-1.322-2.392-2.218-3.859-3.9-3.859s-2.58,1.466-3.9,3.859c-1.306,2.365-2.933,5.306-6.226,5.306s-4.919-2.942-6.224-5.306c-1.322-2.392-2.217-3.859-3.9-3.859s-2.578,1.466-3.9,3.859c-1.306,2.365-2.931,5.306-6.224,5.306S6.574,9.278,5.267,6.913c-1.322-2.392-2.217-3.859-3.9-3.859A1.453,1.453,0,0,1,0,1.527,1.454,1.454,0,0,1,1.367,0C4.658,0,6.285,2.943,7.591,5.308c1.32,2.391,2.217,3.857,3.9,3.857s2.578-1.466,3.9-3.857C16.7,2.943,18.324,0,21.616,0s4.918,2.943,6.222,5.306c1.322,2.393,2.217,3.859,3.9,3.859s2.58-1.466,3.9-3.859C36.948,2.943,38.574,0,41.867,0s4.919,2.943,6.227,5.306C49.415,7.7,50.311,9.165,52,9.165s2.58-1.466,3.9-3.859C57.2,2.943,58.832,0,62.125,0s4.922,2.943,6.229,5.306c1.323,2.393,2.22,3.859,3.9,3.859S74.842,7.7,76.166,5.306C77.472,2.943,79.1,0,82.394,0A1.453,1.453,0,0,1,83.76,1.527a1.452,1.452,0,0,1-1.365,1.527c-1.687,0-2.583,1.466-3.907,3.859C77.181,9.278,75.555,12.22,72.259,12.22Z" transform="translate(83.76 75.921) rotate(180)" fill="#ff966d"/><path d="M72.259,12.22c-3.295,0-4.921-2.942-6.227-5.306-1.323-2.392-2.22-3.859-3.907-3.859s-2.582,1.466-3.9,3.859C56.917,9.278,55.291,12.22,52,12.22s-4.921-2.942-6.227-5.306c-1.322-2.392-2.218-3.859-3.9-3.859s-2.58,1.466-3.9,3.859c-1.306,2.365-2.933,5.306-6.226,5.306s-4.919-2.942-6.224-5.306c-1.322-2.392-2.217-3.859-3.9-3.859s-2.578,1.466-3.9,3.859c-1.306,2.365-2.931,5.306-6.224,5.306S6.574,9.278,5.267,6.913c-1.322-2.392-2.217-3.859-3.9-3.859A1.453,1.453,0,0,1,0,1.527,1.454,1.454,0,0,1,1.367,0C4.658,0,6.285,2.943,7.591,5.308c1.32,2.391,2.217,3.857,3.9,3.857s2.578-1.466,3.9-3.857C16.7,2.943,18.324,0,21.616,0s4.918,2.943,6.222,5.306c1.322,2.393,2.217,3.859,3.9,3.859s2.58-1.466,3.9-3.859C36.948,2.943,38.574,0,41.867,0s4.919,2.943,6.227,5.306C49.415,7.7,50.311,9.165,52,9.165s2.58-1.466,3.9-3.859C57.2,2.943,58.832,0,62.125,0s4.922,2.943,6.229,5.306c1.323,2.393,2.22,3.859,3.9,3.859S74.842,7.7,76.166,5.306C77.472,2.943,79.1,0,82.394,0A1.453,1.453,0,0,1,83.76,1.527a1.452,1.452,0,0,1-1.365,1.527c-1.687,0-2.583,1.466-3.907,3.859C77.181,9.278,75.555,12.22,72.259,12.22Z" transform="translate(85 89.922) rotate(180)" fill="#ff966d"/><path d="M72.259,12.22c-3.295,0-4.921-2.942-6.227-5.306-1.323-2.392-2.22-3.859-3.907-3.859s-2.582,1.466-3.9,3.859C56.917,9.278,55.291,12.22,52,12.22s-4.921-2.942-6.227-5.306c-1.322-2.392-2.218-3.859-3.9-3.859s-2.58,1.466-3.9,3.859c-1.306,2.365-2.933,5.306-6.226,5.306s-4.919-2.942-6.224-5.306c-1.322-2.392-2.217-3.859-3.9-3.859s-2.578,1.466-3.9,3.859c-1.306,2.365-2.931,5.306-6.224,5.306S6.574,9.278,5.267,6.913c-1.322-2.392-2.217-3.859-3.9-3.859A1.453,1.453,0,0,1,0,1.527,1.454,1.454,0,0,1,1.367,0C4.658,0,6.285,2.943,7.591,5.308c1.32,2.391,2.217,3.857,3.9,3.857s2.578-1.466,3.9-3.857C16.7,2.943,18.324,0,21.616,0s4.918,2.943,6.222,5.306c1.322,2.393,2.217,3.859,3.9,3.859s2.58-1.466,3.9-3.859C36.948,2.943,38.574,0,41.867,0s4.919,2.943,6.227,5.306C49.415,7.7,50.311,9.165,52,9.165s2.58-1.466,3.9-3.859C57.2,2.943,58.832,0,62.125,0s4.922,2.943,6.229,5.306c1.323,2.393,2.22,3.859,3.9,3.859S74.842,7.7,76.166,5.306C77.472,2.943,79.1,0,82.394,0A1.453,1.453,0,0,1,83.76,1.527a1.452,1.452,0,0,1-1.365,1.527c-1.687,0-2.583,1.466-3.907,3.859C77.181,9.278,75.555,12.22,72.259,12.22Z" transform="translate(83.76 63.571) rotate(180)" fill="#ff966d"/><path d="M72.259,12.22c-3.295,0-4.921-2.942-6.227-5.306-1.323-2.392-2.22-3.859-3.907-3.859s-2.582,1.466-3.9,3.859C56.917,9.278,55.291,12.22,52,12.22s-4.921-2.942-6.227-5.306c-1.322-2.392-2.218-3.859-3.9-3.859s-2.58,1.466-3.9,3.859c-1.306,2.365-2.933,5.306-6.226,5.306s-4.919-2.942-6.224-5.306c-1.322-2.392-2.217-3.859-3.9-3.859s-2.578,1.466-3.9,3.859c-1.306,2.365-2.931,5.306-6.224,5.306S6.574,9.278,5.267,6.913c-1.322-2.392-2.217-3.859-3.9-3.859A1.453,1.453,0,0,1,0,1.527,1.454,1.454,0,0,1,1.367,0C4.658,0,6.285,2.943,7.591,5.308c1.32,2.391,2.217,3.857,3.9,3.857s2.578-1.466,3.9-3.857C16.7,2.943,18.324,0,21.616,0s4.918,2.943,6.222,5.306c1.322,2.393,2.217,3.859,3.9,3.859s2.58-1.466,3.9-3.859C36.948,2.943,38.574,0,41.867,0s4.919,2.943,6.227,5.306C49.415,7.7,50.311,9.165,52,9.165s2.58-1.466,3.9-3.859C57.2,2.943,58.832,0,62.125,0s4.922,2.943,6.229,5.306c1.323,2.393,2.22,3.859,3.9,3.859S74.842,7.7,76.166,5.306C77.472,2.943,79.1,0,82.394,0A1.453,1.453,0,0,1,83.76,1.527a1.452,1.452,0,0,1-1.365,1.527c-1.687,0-2.583,1.466-3.907,3.859C77.181,9.278,75.555,12.22,72.259,12.22Z" transform="translate(83.76 25.809) rotate(180)" fill="#ff966d"/><path d="M72.259,12.22c-3.295,0-4.921-2.942-6.227-5.306-1.323-2.392-2.22-3.859-3.907-3.859s-2.582,1.466-3.9,3.859C56.917,9.278,55.291,12.22,52,12.22s-4.921-2.942-6.227-5.306c-1.322-2.392-2.218-3.859-3.9-3.859s-2.58,1.466-3.9,3.859c-1.306,2.365-2.933,5.306-6.226,5.306s-4.919-2.942-6.224-5.306c-1.322-2.392-2.217-3.859-3.9-3.859s-2.578,1.466-3.9,3.859c-1.306,2.365-2.931,5.306-6.224,5.306S6.574,9.278,5.267,6.913c-1.322-2.392-2.217-3.859-3.9-3.859A1.453,1.453,0,0,1,0,1.527,1.454,1.454,0,0,1,1.367,0C4.658,0,6.285,2.943,7.591,5.308c1.32,2.391,2.217,3.857,3.9,3.857s2.578-1.466,3.9-3.857C16.7,2.943,18.324,0,21.616,0s4.918,2.943,6.222,5.306c1.322,2.393,2.217,3.859,3.9,3.859s2.58-1.466,3.9-3.859C36.948,2.943,38.574,0,41.867,0s4.919,2.943,6.227,5.306C49.415,7.7,50.311,9.165,52,9.165s2.58-1.466,3.9-3.859C57.2,2.943,58.832,0,62.125,0s4.922,2.943,6.229,5.306c1.323,2.393,2.22,3.859,3.9,3.859S74.842,7.7,76.166,5.306C77.472,2.943,79.1,0,82.394,0A1.453,1.453,0,0,1,83.76,1.527a1.452,1.452,0,0,1-1.365,1.527c-1.687,0-2.583,1.466-3.907,3.859C77.181,9.278,75.555,12.22,72.259,12.22Z" transform="translate(83.76 38.16) rotate(180)" fill="#ff966d"/><path d="M72.259,12.22c-3.295,0-4.921-2.942-6.227-5.306-1.323-2.392-2.22-3.859-3.907-3.859s-2.582,1.466-3.9,3.859C56.917,9.278,55.291,12.22,52,12.22s-4.921-2.942-6.227-5.306c-1.322-2.392-2.218-3.859-3.9-3.859s-2.58,1.466-3.9,3.859c-1.306,2.365-2.933,5.306-6.226,5.306s-4.919-2.942-6.224-5.306c-1.322-2.392-2.217-3.859-3.9-3.859s-2.578,1.466-3.9,3.859c-1.306,2.365-2.931,5.306-6.224,5.306S6.574,9.278,5.267,6.913c-1.322-2.392-2.217-3.859-3.9-3.859A1.453,1.453,0,0,1,0,1.527,1.454,1.454,0,0,1,1.367,0C4.658,0,6.285,2.943,7.591,5.308c1.32,2.391,2.217,3.857,3.9,3.857s2.578-1.466,3.9-3.857C16.7,2.943,18.324,0,21.616,0s4.918,2.943,6.222,5.306c1.322,2.393,2.217,3.859,3.9,3.859s2.58-1.466,3.9-3.859C36.948,2.943,38.574,0,41.867,0s4.919,2.943,6.227,5.306C49.415,7.7,50.311,9.165,52,9.165s2.58-1.466,3.9-3.859C57.2,2.943,58.832,0,62.125,0s4.922,2.943,6.229,5.306c1.323,2.393,2.22,3.859,3.9,3.859S74.842,7.7,76.166,5.306C77.472,2.943,79.1,0,82.394,0A1.453,1.453,0,0,1,83.76,1.527a1.452,1.452,0,0,1-1.365,1.527c-1.687,0-2.583,1.466-3.907,3.859C77.181,9.278,75.555,12.22,72.259,12.22Z" transform="translate(83.76 11.809) rotate(180)" fill="#ff966d"/></g></svg>