<svg xmlns="http://www.w3.org/2000/svg" width="76.488" height="62.028" viewBox="0 0 76.488 62.028"><path d="M71.794,87.554H44.708a.781.781,0,0,0,0,1.561H71.794a3.825,3.825,0,1,0,0-1.561Zm6.01.781a2.264,2.264,0,1,1-2.264-2.264A2.266,2.266,0,0,1,77.8,88.335ZM80.426,111.7a3.832,3.832,0,0,0-3.745,3.044H69.547l-17-17a.784.784,0,0,0-1.105,0,13.3,13.3,0,1,1,0-18.811.781.781,0,0,0,1.1,0l17.006-17h7.134a3.825,3.825,0,1,0,0-1.561H69.224a.786.786,0,0,0-.553.228L63.4,65.859c-.651-.62-1.333-1.214-2.034-1.773a4.025,4.025,0,0,0-5.158.07L52.86,66.984a2.171,2.171,0,0,1-3.569-1.461l-.406-4.369a4.026,4.026,0,0,0-3.628-3.667,31.357,31.357,0,0,0-6.694.025,4.023,4.023,0,0,0-3.6,3.7l-.372,4.374a2.172,2.172,0,0,1-3.556,1.491l-3.377-2.8a4.024,4.024,0,0,0-5.158-.028A31.225,31.225,0,0,0,17.786,69a4.025,4.025,0,0,0,.07,5.158l2.829,3.353a2.171,2.171,0,0,1-1.461,3.569l-4.369.406a4.026,4.026,0,0,0-3.667,3.628,31.357,31.357,0,0,0,.025,6.694,4.023,4.023,0,0,0,3.7,3.6l4.374.372a2.172,2.172,0,0,1,1.491,3.556l-2.8,3.377a4.024,4.024,0,0,0-.028,5.158,31.3,31.3,0,0,0,4.755,4.716,4.025,4.025,0,0,0,5.158-.07l3.353-2.829a2.171,2.171,0,0,1,3.569,1.461l.406,4.369a4.026,4.026,0,0,0,3.628,3.667,31.342,31.342,0,0,0,6.7-.025,4.023,4.023,0,0,0,3.6-3.7l.372-4.374a2.172,2.172,0,0,1,3.556-1.491l3.377,2.8a4.024,4.024,0,0,0,5.158.028c.631-.512,1.247-1.055,1.839-1.617l5.267,5.267a.779.779,0,0,0,.553.228h7.457a3.825,3.825,0,1,0,3.742-4.6Zm0-52.819a2.264,2.264,0,1,1-2.264,2.264A2.266,2.266,0,0,1,80.426,58.881ZM60.581,111.215A2.478,2.478,0,0,1,57.4,111.2l-3.377-2.8a3.733,3.733,0,0,0-6.108,2.56l-.372,4.374a2.478,2.478,0,0,1-2.218,2.276,29.662,29.662,0,0,1-6.36.023,2.478,2.478,0,0,1-2.234-2.259L36.33,111a3.731,3.731,0,0,0-6.129-2.51l-3.353,2.829a2.48,2.48,0,0,1-3.177.044,29.684,29.684,0,0,1-4.518-4.48,2.478,2.478,0,0,1,.017-3.177l2.8-3.377a3.733,3.733,0,0,0-2.56-6.108l-4.374-.372a2.478,2.478,0,0,1-2.276-2.218,29.664,29.664,0,0,1-.023-6.36A2.477,2.477,0,0,1,15,83.038l4.369-.406a3.732,3.732,0,0,0,2.51-6.129L19.049,73.15a2.48,2.48,0,0,1-.044-3.177,29.685,29.685,0,0,1,4.48-4.518,2.478,2.478,0,0,1,3.177.017l3.377,2.8a3.733,3.733,0,0,0,6.108-2.56l.372-4.374a2.478,2.478,0,0,1,2.218-2.276,29.765,29.765,0,0,1,6.36-.025A2.478,2.478,0,0,1,47.331,61.3l.406,4.369a3.732,3.732,0,0,0,6.129,2.51l3.353-2.829a2.48,2.48,0,0,1,3.177-.044c.656.523,1.294,1.079,1.9,1.658L51.976,77.287a14.863,14.863,0,1,0,0,22.095L62.3,109.705c-.553.526-1.129,1.032-1.719,1.51Zm19.846,6.574a2.264,2.264,0,1,1,2.264-2.264A2.266,2.266,0,0,1,80.426,117.788Zm3.258-19.683a3.832,3.832,0,0,0-3.745,3.044H70.03l-8.387-8.387a.78.78,0,0,0-.553-.228H37.605a.781.781,0,1,0,0,1.561H60.766l8.387,8.387a.78.78,0,0,0,.553.228H79.939a3.825,3.825,0,1,0,3.745-4.605Zm0,6.09a2.264,2.264,0,1,1,2.264-2.264A2.266,2.266,0,0,1,83.684,104.195ZM79.939,73.959H69.707a.786.786,0,0,0-.553.228l-8.387,8.387H37.605a.781.781,0,1,0,0,1.561H61.09a.786.786,0,0,0,.553-.228L70.03,75.52h9.909a3.825,3.825,0,1,0,0-1.561Zm6.008.781a2.264,2.264,0,1,1-2.264-2.264A2.266,2.266,0,0,1,85.948,74.74Z" transform="translate(-11.021 -57.32)" fill="#acda53"/></svg>