<svg xmlns="http://www.w3.org/2000/svg" width="62" height="62" viewBox="0 0 62 62"><g transform="translate(-1 -1)"><path d="M52,57h2v2H52Z" fill="#acda53"/><path d="M48,57h2v2H48Z" fill="#acda53"/><path d="M44,57h2v2H44Z" fill="#acda53"/><path d="M44,53H54v2H44Z" fill="#acda53"/><path d="M63,12a3,3,0,0,0-3-3V7a3,3,0,0,0,0-6H44a3,3,0,0,0,0,6V9a3,3,0,0,0-2.816,2H40a5.006,5.006,0,0,0-5,5V37H33V16a5.006,5.006,0,0,0-5-5H27V4a3,3,0,0,0-3-3H4A3,3,0,0,0,1,4V18a3,3,0,0,0,3,3H24a3,3,0,0,0,3-3V13h1a3,3,0,0,1,3,3V37H29V32a5.006,5.006,0,0,0-5-5H20.9A5.009,5.009,0,0,0,16,23H8A5,5,0,0,0,8,33H21V29h3a3,3,0,0,1,3,3v5H6.382l-5,10H6V63H58V47h4.618l-5-10H41V34a3,3,0,0,1,3-3h1.1a5,5,0,1,0,0-2H44a5.006,5.006,0,0,0-5,5v3H37V16a3,3,0,0,1,3-3h1.184A3,3,0,0,0,44,15v2a3,3,0,0,0,0,6H60a3,3,0,0,0,0-6V15A3,3,0,0,0,63,12ZM25,18a1,1,0,0,1-1,1H4a1,1,0,0,1-1-1V4A1,1,0,0,1,4,3H24a1,1,0,0,1,1,1ZM19,31H8a3,3,0,0,1,0-6h8a3,3,0,0,1,3,3Zm31-4a3,3,0,1,1-3,3A3,3,0,0,1,50,27ZM7.618,39H22.382l-3,6H4.618ZM8,47H20.618L24,40.236V61H8ZM56,61H26V40.236L29.382,47H56Zm3.382-16H30.618l-3-6H56.382ZM43,4a1,1,0,0,1,1-1H60a1,1,0,0,1,0,2H44A1,1,0,0,1,43,4Zm3,3H58V9H46Zm-3,5a1,1,0,0,1,1-1H60a1,1,0,0,1,0,2H44A1,1,0,0,1,43,12Zm18,8a1,1,0,0,1-1,1H44a1,1,0,0,1,0-2H60A1,1,0,0,1,61,20Zm-3-3H46V15H58Z" fill="#acda53"/><path d="M17,7H13V9H9v2H5v6H23V5H17Zm-4,4v4H11V11ZM7,13H9v2H7Zm8,2V9h2v6Zm4-8h2v8H19Z" fill="#acda53"/><path d="M7,27H9v2H7Z" fill="#acda53"/><path d="M11,27h2v2H11Z" fill="#acda53"/><path d="M15,27h2v2H15Z" fill="#acda53"/><path d="M53,41h2v2H53Z" fill="#acda53"/><path d="M49,41h2v2H49Z" fill="#acda53"/><path d="M45,41h2v2H45Z" fill="#acda53"/><path d="M10,49h2v2H10Z" fill="#acda53"/><path d="M10,53h2v2H10Z" fill="#acda53"/><path d="M10,57h2v2H10Z" fill="#acda53"/></g></svg>