<svg id="Grupo_1158783" data-name="Grupo 1158783" xmlns="http://www.w3.org/2000/svg" xmlns:xlink="http://www.w3.org/1999/xlink" width="97.582" height="98.341" viewBox="0 0 97.582 98.341">
  <defs>
    <clipPath id="clip-path">
      <rect id="Rectángulo_418135" data-name="Rectángulo 418135" width="97.582" height="98.341" fill="none"/>
    </clipPath>
    <clipPath id="clip-path-3">
      <rect id="Rectángulo_418129" data-name="Rectángulo 418129" width="94.887" height="95.646" fill="none"/>
    </clipPath>
    <clipPath id="clip-path-4">
      <rect id="Rectángulo_418130" data-name="Rectángulo 418130" width="12.737" height="22.827" fill="none"/>
    </clipPath>
    <clipPath id="clip-path-5">
      <rect id="Rectángulo_418131" data-name="Rectángulo 418131" width="1.997" height="3.034" fill="none"/>
    </clipPath>
    <clipPath id="clip-path-6">
      <rect id="Rectángulo_418132" data-name="Rectángulo 418132" width="3.712" height="9.896" fill="none"/>
    </clipPath>
    <clipPath id="clip-path-7">
      <rect id="Rectángulo_418133" data-name="Rectángulo 418133" width="10.796" height="1.858" fill="none"/>
    </clipPath>
  </defs>
  <g id="Grupo_1158716" data-name="Grupo 1158716" clip-path="url(#clip-path)">
    <g id="Grupo_1158715" data-name="Grupo 1158715">
      <g id="Grupo_1158714" data-name="Grupo 1158714" clip-path="url(#clip-path)">
        <g id="Grupo_1158701" data-name="Grupo 1158701" transform="translate(2.695 2.695)" opacity="0.2">
          <g id="Grupo_1158700" data-name="Grupo 1158700">
            <g id="Grupo_1158699" data-name="Grupo 1158699" clip-path="url(#clip-path-3)">
              <path id="Trazado_1012910" data-name="Trazado 1012910" d="M24.81,110.236c3.988.8,9.642.693,14.048.467,4.661-.2,13.909-.87,17.195-1.2a38.085,38.085,0,0,0,13.368,2.824c6.936,0,12.516-3.1,17.048-8.559,11.346-13.769,10.4-34.882,3.36-51.522q1.179-.781,2.356-1.566A23.293,23.293,0,0,0,98.8,52.157a10.308,10.308,0,0,0,4.439-1.235,47.513,47.513,0,0,0,4.729-2.1c5.05-2.776,4.59-8.824-.166-11.148.577-2.009-.947-5.49-3.507-7.051.8-3.092-.628-7.153-4.8-7.173a11.517,11.517,0,0,0-5.268,1.824A28.227,28.227,0,0,0,86.4,30.787c-2.31,2.395-2.483,5.661-2.527,8.176l-.66.424C64.91,8.633,19.236,5.488,19.8,52.659A56.4,56.4,0,0,0,21.693,68.1c-1.151,4.824-3.508,16.222-4.08,20.5-.656,4.445-1.4,9.483-.567,14.319,1.047,6.076,6.1,7.007,7.763,7.313" transform="translate(-16.677 -16.677)" fill="#603226"/>
            </g>
          </g>
        </g>
        <path id="Trazado_1012911" data-name="Trazado 1012911" d="M91.123,21c.577-2.009-.947-5.49-3.508-7.051.8-3.092-.628-7.153-4.8-7.173A11.52,11.52,0,0,0,77.551,8.6a28.23,28.23,0,0,0-7.828,5.509c-2.31,2.395-2.483,5.661-2.527,8.176l-.66.424C48.233-8.044,2.559-11.189,3.124,35.982A56.4,56.4,0,0,0,5.016,51.426c-1.151,4.824-3.508,16.222-4.08,20.5C.28,76.372-.463,81.41.37,86.247c1.047,6.077,6.1,7.007,7.763,7.313,3.988.8,9.642.693,14.047.467,4.661-.2,13.909-.87,17.195-1.2a38.086,38.086,0,0,0,13.368,2.824c6.937,0,12.516-3.1,17.049-8.559,11.345-13.769,10.4-34.882,3.36-51.522Q74.33,34.783,75.507,34a23.288,23.288,0,0,0,6.614,1.481,10.307,10.307,0,0,0,4.439-1.235,47.51,47.51,0,0,0,4.729-2.1c5.05-2.776,4.59-8.824-.166-11.148" transform="translate(0 0)" fill="#fffeee"/>
        <path id="Trazado_1012912" data-name="Trazado 1012912" d="M506.978,146.8a.3.3,0,0,0-.284.032c-.933.654-1.917,1.287-2.766,1.83a.3.3,0,0,0,.09.54l.784.227c1.021-1.658,3.526-1.851,5.664-1.261-.134-.049-.27-.094-.405-.137-1.07-.38-2.034-.82-3.082-1.23" transform="translate(-422.381 -123.056)" fill="#68b0d8"/>
        <g id="Grupo_1158704" data-name="Grupo 1158704" transform="translate(11.717 9.229)" opacity="0.5">
          <g id="Grupo_1158703" data-name="Grupo 1158703">
            <g id="Grupo_1158702" data-name="Grupo 1158702" clip-path="url(#clip-path-4)">
              <path id="Trazado_1012913" data-name="Trazado 1012913" d="M73.949,78.942c.574-2.215.786-4.493,1.425-6.7A24.65,24.65,0,0,1,85,58.314c.5-.341.159-1.157-.5-1.2-5.79-.346-13.17,14.007-11.843,21.823.269,1.588,1.015,1.044,1.285,0" transform="translate(-72.508 -57.112)" fill="#fff"/>
            </g>
          </g>
        </g>
        <g id="Grupo_1158707" data-name="Grupo 1158707" transform="translate(11.633 33.109)" opacity="0.5">
          <g id="Grupo_1158706" data-name="Grupo 1158706">
            <g id="Grupo_1158705" data-name="Grupo 1158705" clip-path="url(#clip-path-5)">
              <path id="Trazado_1012914" data-name="Trazado 1012914" d="M73.047,207.918a.936.936,0,0,0,.934-.935,4.426,4.426,0,0,0-.476-1.741.742.742,0,0,0-1.27,0,2.547,2.547,0,0,0-.089,1.989.956.956,0,0,0,.9.686" transform="translate(-71.986 -204.884)" fill="#fff"/>
            </g>
          </g>
        </g>
        <g id="Grupo_1158710" data-name="Grupo 1158710" transform="translate(36.118 34.498)" opacity="0.5">
          <g id="Grupo_1158709" data-name="Grupo 1158709">
            <g id="Grupo_1158708" data-name="Grupo 1158708" clip-path="url(#clip-path-6)">
              <path id="Trazado_1012915" data-name="Trazado 1012915" d="M226.389,213.5c-3.347.765-3.583,7.548-1.724,9.688a.612.612,0,0,0,1.04-.274,51.429,51.429,0,0,1,1.48-8.618.653.653,0,0,0-.8-.8" transform="translate(-223.504 -213.481)" fill="#fff"/>
            </g>
          </g>
        </g>
        <g id="Grupo_1158713" data-name="Grupo 1158713" transform="translate(11.197 85.251)" opacity="0.5">
          <g id="Grupo_1158712" data-name="Grupo 1158712">
            <g id="Grupo_1158711" data-name="Grupo 1158711" clip-path="url(#clip-path-7)">
              <path id="Trazado_1012916" data-name="Trazado 1012916" d="M79.624,529.236a.637.637,0,0,0,.151-1.155c-1.429-.668-7.882-.6-9.55-.367-1.623.226-.807.932,0,1.152,1.426.39,7.775.774,9.4.369" transform="translate(-69.289 -527.551)" fill="#fff"/>
            </g>
          </g>
        </g>
        <path id="Trazado_1012917" data-name="Trazado 1012917" d="M108.764,43.507c-.735-1.469-3.123-2.363-5.039-2.963.04-.032.082-.062.121-.1,1.86-1.533,1.878-3.353.222-5.071-.008-.009-.018-.014-.027-.023a2.711,2.711,0,0,0-2.795-.95c.187-.808.272-1.653.378-2.454.122-.927.532-2.4-.04-3.252-1.109-1.652-3.859.182-5.109.8a25.164,25.164,0,0,0-6.9,4.831c-1.847,1.915-1.507,5.179-1.627,7.719-.594.375-1.188.749-1.779,1.129q-1.685,1.082-3.353,2.191C75.44,31.339,60.982,19.489,44.372,21.575,28.953,23.511,24.246,37.353,23.915,53.937a53.3,53.3,0,0,0,2,15.308c-.036.071-3.11,13.495-4.093,20.219-.666,4.55-1.494,9.512-.7,14.1.505,2.934,2.235,4.058,5.058,4.577,4.345.8,8.908.6,13.3.414,5.8-.244,16.807-1.106,17.809-1.284a38.8,38.8,0,0,0,7.126,2.237c3.877.81,7.87,1.067,11.649-.326a20.26,20.26,0,0,0,8.568-6.339c10.128-12.366,9.284-30.684,3.984-45.3-.647-1.784-2.193-5.29-2.23-5.342q3.037-2,6.058-4.021c1.255.362,2.2.794,3.342,1.083a14.631,14.631,0,0,0,4,.738,8.5,8.5,0,0,0,2.88-.953c1.458-.631,3.038-1.173,4.424-1.947,1.248-.7,2.415-2.132,1.683-3.594M95.778,33.088c.243-1.465.511-1.845,1.329-2.284,1.167-.625,2.476-1.161,2.838-.542.337.574-.361,2.731-.459,3.354A15.36,15.36,0,0,0,99.27,35.2c-.7.386-1.386.833-2.022,1.2q-1.153.67-2.3,1.353c.269-1.557.572-3.115.83-4.672m-5.149,2.3A13.271,13.271,0,0,1,94.1,32.572a15.974,15.974,0,0,0-.367,5.917q-2.123,1.273-4.225,2.582c.031-1.952,0-4.252,1.126-5.683M29.873,106.36c-2.29-.139-5.9-.013-6.544-2.729-.973-4.079-.123-8.875.432-12.951.809-5.945,1.986-11.842,3.325-17.692a64.142,64.142,0,0,0,15.8,24.589c.2.194.407.383.612.574-.48,1.026-.988,2.037-1.464,3.067-.169.365.374.686.544.318.455-.984.939-1.953,1.4-2.933.313.286.631.566.951.844-.5,1.19-1.023,2.374-1.566,3.547q-.47,1.016-.948,2.027l-.47,1-.13.277a100.2,100.2,0,0,1-11.945.062m17.511-.482c.42-.894,1.079-2.357,1.511-3.307q.648.46,1.312.9-.527,1.1-.968,2.235-.927.09-1.855.175m-.057-1.413c-.192.454-.463.963-.655,1.474q-.809.07-1.618.134l2.051-4.837q.622.485,1.26.95c-.362.752-.713,1.509-1.038,2.279m-2.975,1.663q-.9.067-1.806.124c.035-.091.069-.178.106-.254.4-.845.794-1.688,1.188-2.535.55-1.187,1.075-2.384,1.588-3.587q.577.49,1.167.964-1.12,2.644-2.242,5.288m5.591-.495q.367-.924.8-1.822c.811.52,1.636,1.017,2.478,1.483q-1.633.175-3.274.338m35.448-7.863c-3.511,6.052-9.29,10.611-16.6,10.056-7.867-.6-15.342-4.3-21.312-9.322A60.72,60.72,0,0,1,32.63,79.5a54.819,54.819,0,0,1-4.322-11.512,48.16,48.16,0,0,1-1.753-8.35,55.559,55.559,0,0,1,2.224-21.119c1.871-5.613,6.365-11.456,11.523-13.46,7.432-2.888,16.484-1.047,23.093,2.986A47.54,47.54,0,0,1,80.68,46.681c.016.03.035.052.052.079Q78.852,48.03,77,49.334c-5.1-9.275-14.719-17.248-25.818-16.154-4.97.49-8.02,3.01-11.009,6.87-3.082,3.979-3.752,9.759-3.972,14.623-.518,11.5,4.531,22.879,12.555,31.01,7.133,7.228,20.9,14.228,29.237,4.965s6.831-23.909,2.64-34.688c.642-.416,1.286-.827,1.927-1.244.731-.476,1.456-.96,2.186-1.438a.873.873,0,0,0,.03.094c5.784,13.59,8.384,31.015.621,44.4M59.827,63.986c.324,2.217,3.333,2.209,4.956,1.753a19.017,19.017,0,0,0,4.807-2.68q1.554-.992,3.106-1.987c1.459,5.073,2.252,13.72-3.5,16.472-3.08,1.472-7.205-.567-9.617-2.484a21.4,21.4,0,0,1-5.914-7.713c-2.156-4.6-3.079-11.838.432-16.006,4.607-5.469,11.8-1.087,15.183,3.6q-1.83,1.379-3.639,2.785c-.015.011-.03.018-.045.03a42.221,42.221,0,0,0-4.761,3.939,2.793,2.793,0,0,0-1,2.293M56.75,47.306c-5.116,1.245-6.623,7.342-6.712,11.868a22.125,22.125,0,0,0,6.378,15.363C59.963,78.228,66.785,82,71.441,78.064c5.053-4.273,4.459-12.16,2.64-17.814-.006-.018-.015-.033-.022-.05l.408-.261q2.423-1.554,4.837-3.123c3.443,9.257,4.857,20.794-.328,29.648-2.546,4.348-6.709,7.43-11.952,6.881a27.286,27.286,0,0,1-14.864-6.864A43.008,43.008,0,0,1,41.95,72.958a37.525,37.525,0,0,1-3.9-13.39,38.144,38.144,0,0,1,1.636-14.653c1.268-3.659,4.476-7.944,8.252-9.266C59.266,31.684,70.4,41.063,75.5,50.385q-2.4,1.705-4.77,3.462c-3.163-4.419-8.342-7.913-13.979-6.541m26.872,4.482q-5.607,3.671-11.256,7.276A70.371,70.371,0,0,1,65.3,63.537c-1.6.77-5.22.79-2.428-1.527,1.215-1.008,2.517-1.931,3.777-2.883.012-.009.02-.019.032-.028,5.583-4.24,11.283-8.316,17.137-12.174q4.263-2.809,8.623-5.468c1.13-.689,6.863-4.714,9.229-5.115,1.34-.226,1.8,1.489,1.64,1.911-.216.56-.958.956-1.59,1.387l-2.939,2Q96.043,43.5,93.3,45.355q-4.817,3.248-9.677,6.432m13.8-3.951c-1.086-.212-2.222-.561-3.352-.753.822-.552,1.647-1.1,2.467-1.654.4-.271.81-.538,1.221-.8a33.7,33.7,0,0,0,3.763,1.391c.61.2,1.236.457,1.872.664-2.106.917-3.593,1.618-5.971,1.156m7.01-4.9a15.053,15.053,0,0,1,1.851.724c.759.449,1.206.544.6,1.394q-.5.3-1.019.55c-.149.074-.3.143-.453.212a14.331,14.331,0,0,0-2.934-1.067c-1.108-.345-2.214-.728-3.342-1.006" transform="translate(-17.431 -17.888)" fill="#603226"/>
        <path id="Trazado_1012918" data-name="Trazado 1012918" d="M205.706,45.807a27.03,27.03,0,0,1,11.652,4.427c.338.226.654-.32.319-.544a27.191,27.191,0,0,0-11.917-4.313c-.4-.048-.451.382-.053.43" transform="translate(-172.234 -38.041)" fill="#603226"/>
        <path id="Trazado_1012919" data-name="Trazado 1012919" d="M284.024,75.825c.072-.115-.084-.385-.24-.532-.294-.279-.74.166-.446.446.206.2.589.238.685.086" transform="translate(-237.471 -63.052)" fill="#603226"/>
        <path id="Trazado_1012920" data-name="Trazado 1012920" d="M242.264,520.517c-3.977-.992-7.9-2.027-11.423-4.165-.466-.282-.681.188-.228.481a30.144,30.144,0,0,0,11.413,4.548c.556.089.81-.722.238-.864" transform="translate(-193.137 -432.837)" fill="#603226"/>
        <path id="Trazado_1012921" data-name="Trazado 1012921" d="M309.312,543.546a.5.5,0,0,0,0,1c.282,0,.688-.118.722-.335.043-.275-.362-.662-.722-.662" transform="translate(-258.924 -455.71)" fill="#603226"/>
        <path id="Trazado_1012922" data-name="Trazado 1012922" d="M148.908,521.345a.316.316,0,0,0-.545-.318c-.216.379-.207.835-.067.909s.408-.235.612-.591" transform="translate(-124.247 -436.702)" fill="#603226"/>
      </g>
    </g>
  </g>
</svg>
