<svg xmlns="http://www.w3.org/2000/svg" xmlns:xlink="http://www.w3.org/1999/xlink" width="164.261" height="167.57" viewBox="0 0 164.261 167.57">
  <defs>
    <clipPath id="clip-path">
      <rect id="Rectángulo_418120" data-name="Rectángulo 418120" width="95.129" height="139.833" fill="none"/>
    </clipPath>
    <clipPath id="clip-path-3">
      <rect id="Rectángulo_418116" data-name="Rectángulo 418116" width="91.267" height="135.971" fill="none"/>
    </clipPath>
    <clipPath id="clip-path-4">
      <rect id="Rectángulo_418117" data-name="Rectángulo 418117" width="22.489" height="1.167" fill="none"/>
    </clipPath>
    <clipPath id="clip-path-5">
      <rect id="Rectángulo_418118" data-name="Rectángulo 418118" width="3.641" height="1.226" fill="none"/>
    </clipPath>
  </defs>
  <g id="Grupo_1158781" data-name="Grupo 1158781" transform="translate(93.566) rotate(42)">
    <g id="Grupo_1158675" data-name="Grupo 1158675" clip-path="url(#clip-path)">
      <g id="Grupo_1158674" data-name="Grupo 1158674">
        <g id="Grupo_1158673" data-name="Grupo 1158673" clip-path="url(#clip-path)">
          <g id="Grupo_1158666" data-name="Grupo 1158666" transform="translate(3.862 3.862)" opacity="0.2">
            <g id="Grupo_1158665" data-name="Grupo 1158665">
              <g id="Grupo_1158664" data-name="Grupo 1158664" clip-path="url(#clip-path-3)">
                <path id="Trazado_1012881" data-name="Trazado 1012881" d="M105.768,47.286C94.825,12.62,49.449,6.8,26.422,32.884,15.916,45.137,14.6,62.461,19.176,78.756,21.6,85.857,25.8,92.507,29.2,97.51a58.6,58.6,0,0,0,6.2,7.912c4.466,4.608,4.432,5.241,4.381,6.2-.219,4.276,1.045,8.107,2.148,11.682,4.447,13.765,9.409,22.287,26.838,22.183,5.765,13.534,28.335,6.162,26.92-7.756,5.616-3.918,9.022-8.152,9.253-14.631.872-7.415-.65-15.618-4.409-24.067-.4-.894-.441-.988.714-4.192,5.82-15.394,9.146-33.873,4.525-47.553" transform="translate(-16.677 -16.676)" fill="#603226"/>
              </g>
            </g>
          </g>
          <path id="Trazado_1012882" data-name="Trazado 1012882" d="M89.092,30.61c4.621,13.679,1.3,32.159-4.525,47.552-1.155,3.2-1.114,3.3-.714,4.192,3.758,8.448,5.281,16.652,4.409,24.067-.231,6.479-3.637,10.713-9.253,14.631,1.415,13.917-21.155,21.29-26.92,7.756-17.43.1-22.391-8.418-26.838-22.183-1.1-3.574-2.367-7.405-2.147-11.682.052-.957.086-1.59-4.381-6.2a58.606,58.606,0,0,1-6.2-7.912c-3.393-5-7.6-11.653-10.019-18.754C-2.079,45.784-.76,28.461,9.746,16.207c23.026-26.079,68.4-20.263,79.346,14.4" transform="translate(0 0)" fill="#fffeee"/>
          <path id="Trazado_1012883" data-name="Trazado 1012883" d="M257.133,527.262a12.992,12.992,0,0,0,3.515-.571,6.563,6.563,0,0,0,4.771-5.3c.277-1.306.221-2.143-.177-2.635-.657-.729-1.568-.479-2.536-.111a42.484,42.484,0,0,1-8.781,2.442c-1.943.229-2.551,1.292-1.92,2.783a5.038,5.038,0,0,0,5.127,3.394Z" transform="translate(-193.457 -398.25)" fill="#faf8f5"/>
          <path id="Trazado_1012884" data-name="Trazado 1012884" d="M156.216,422.835a55.525,55.525,0,0,0,24.024-6.106,32.008,32.008,0,0,0,6.861-5.323,5.478,5.478,0,0,0,1.935-5.325c-.15-1.186-.363-2.412-.632-3.644a.43.43,0,0,0-.771-.147c-7.308,9.44-24.415,12.525-35.8,13.052a23.981,23.981,0,0,1-10.995-1.9.43.43,0,0,0-.4.568c.464,1.295.8,2.35,1.275,3.635.948,3.394,7.21,5.294,14.5,5.19" transform="translate(-107.89 -308.976)" fill="#faf8f5"/>
          <path id="Trazado_1012885" data-name="Trazado 1012885" d="M179.32,330.563c.616-.085.464-.64.11-.969a2.466,2.466,0,0,0-1.785-1.176c-.492-.076-.9.24-.9.437-.16.972,1.864,1.5,2.575,1.708" transform="translate(-135.803 -252.346)" fill="#fce891"/>
          <g id="Grupo_1158669" data-name="Grupo 1158669" transform="translate(33.776 14.308)" opacity="0.5">
            <g id="Grupo_1158668" data-name="Grupo 1158668">
              <g id="Grupo_1158667" data-name="Grupo 1158667" clip-path="url(#clip-path-4)">
                <path id="Trazado_1012886" data-name="Trazado 1012886" d="M167.981,61.779c.786.621.075,1.281-.7,1.151a90.45,90.45,0,0,0-21.446-.648" transform="translate(-145.834 -61.779)" fill="#fff"/>
              </g>
            </g>
          </g>
          <g id="Grupo_1158672" data-name="Grupo 1158672" transform="translate(27.73 13.738)" opacity="0.5">
            <g id="Grupo_1158671" data-name="Grupo 1158671">
              <g id="Grupo_1158670" data-name="Grupo 1158670" clip-path="url(#clip-path-5)">
                <path id="Trazado_1012887" data-name="Trazado 1012887" d="M119.73,60.469c.611-.913,2.48-1.626,3.389-.757a.854.854,0,0,1,.22.833" transform="translate(-119.73 -59.319)" fill="#fff"/>
              </g>
            </g>
          </g>
          <path id="Trazado_1012888" data-name="Trazado 1012888" d="M21.7,53.582A33.754,33.754,0,0,1,29.747,34.72c9.015-10.38,24.829-16.226,38.407-14.41,15.006,2.007,28.17,12.566,32.7,27.089,3.03,9.705,2.218,20.121-.045,29.895A128.384,128.384,0,0,1,96.4,91.882c-1.3,3.614-1.77,5.128-.581,7.79,2.943,6.592,4.838,14.045,4.06,21.2-.257,2.366-.446,4.869-1.989,6.763a26.97,26.97,0,0,1-6.664,5.744,1.836,1.836,0,0,0-.848,2.324c1.271,4.984-2.847,9.3-7.612,10.414-2.642.617-5.472.72-7.714-1.028a6.763,6.763,0,0,1-2.534-4.051c-.256-1.469-.443-1.82-2-1.747q-.741.035-1.479.05c-6.908.138-14.93-1.379-18.287-8a66.792,66.792,0,0,1-4.537-10.78c-.974-3.163-2.123-6.634-1.941-10,.17-3.151-1.138-5.073-5.732-9.812a53.366,53.366,0,0,1-5.677-7.264c-3.682-5.426-7.319-11.362-9.447-17.6-2.348-6.889-2.461-15.128-1.722-22.3m53.612,87.24A4.6,4.6,0,0,0,76.877,143c1.86,1.389,4.461.978,6.563.381a6.158,6.158,0,0,0,4.47-4.98c.491-2.314-.091-3.088-2.136-2.262a42.781,42.781,0,0,1-8.868,2.466c-1.739.295-2.107.83-1.592,2.214m2.413-5.6A34.579,34.579,0,0,0,88.9,131.3c2.964-1.678,7.091-4.259,7.827-7.821a31.491,31.491,0,0,0,.586-4.484,24.462,24.462,0,0,1-6.807,5.418,55.182,55.182,0,0,1-12.933,5.124,47.223,47.223,0,0,1-15.13,1.808,20.2,20.2,0,0,1-2.392,3.685,28.171,28.171,0,0,0,6.77,1.041,52.311,52.311,0,0,0,10.9-.843m-20.938-4.532q-.7.926-1.361,1.886a8.523,8.523,0,0,0,1.156.9,13.986,13.986,0,0,1,1.9-2.512c-.569-.08-1.138-.172-1.7-.278m2.786.418a14.69,14.69,0,0,0-2.22,2.825,13.5,13.5,0,0,0,1.8.792,23.511,23.511,0,0,0,2.311-3.44c-.6-.042-1.235-.1-1.888-.177m-4.782.8q.5-.719,1.022-1.421a16.351,16.351,0,0,1-2.527-.754,16.88,16.88,0,0,0,1.5,2.176m8.906-3.142a45.814,45.814,0,0,0,13.612-1.819,55.549,55.549,0,0,0,11.2-4.225,31.416,31.416,0,0,0,6.77-5.257,5.052,5.052,0,0,0,1.8-4.961c-.154-1.211-.365-2.412-.625-3.607-1.511,2.252-4.2,4.1-6.134,5.379a44.054,44.054,0,0,1-14.79,5.759,77.491,77.491,0,0,1-15.222,2.1,35.616,35.616,0,0,1-4.981-.212c-1.051,1.363-1.946,2.839-2.916,4.264,2.077,1.533,5.735,2.445,11.28,2.576m10.95-37.04a15.626,15.626,0,0,1-9.52,4.472,23.69,23.69,0,0,1,3.428,13.658c1.366-.147,2.682-.33,3.918-.533a41.91,41.91,0,0,0,9.018-2.463,55.5,55.5,0,0,1-6.843-15.134m1.24-5.518a15,15,0,0,0,1.362-5.351,13.682,13.682,0,0,0-.384-4.955c-.571-1.667-1.09-1.363-1.521-.093-1.019,3.01-.314,6.992.544,10.4m-3.129,25.85a60.144,60.144,0,0,1-15.783.42c-1.16-.12-2.356-.269-3.543-.481-1.549,1.822-2.794,3.879-4.239,5.782a6.4,6.4,0,0,0,1.53.573,33.365,33.365,0,0,0,7.158,1.136,60.408,60.408,0,0,0,14.528-1.428c7.91-1.544,15.983-4.083,21.35-10.091a4.67,4.67,0,0,0,1.131-4.718c-.366-1.1-.763-2.2-1.183-3.29-3.947,7.325-12.579,10.747-20.948,12.1M47.508,114.06a22.187,22.187,0,0,1,2.332-2.975,14.163,14.163,0,0,1-2.47-1.126,13.016,13.016,0,0,0,.139,4.1M50.8,111.4a22.033,22.033,0,0,0-3.039,3.882c.038.159.075.318.115.477a3.86,3.86,0,0,0,.636,1.433c1.341-1.769,2.507-3.671,3.908-5.39-.546-.117-1.089-.246-1.621-.4m.942,14.215c.868-1.271,1.676-2.582,2.584-3.823-.517-.084-1.032-.179-1.54-.3-.113-.026-.223-.061-.334-.09-.6.935-1.172,1.883-1.689,2.863a4.913,4.913,0,0,0,.979,1.346m-1.827-3.641c.129.385.271.788.416,1.2.388-.688.8-1.363,1.226-2.03a22.769,22.769,0,0,1-2.151-.848c-.033-.015-.061-.033-.093-.049.208.591.413,1.17.6,1.731M26.4,74.791c2,6.048,5.665,11.842,9.227,17.076,3.395,4.988,8.191,8.765,11.467,13.759.951,1.449.762,1.778,2.586,2.527,4.89,2.008,10.917,2.318,16.422,1.931-.055-4.463-.706-8.557-3.029-12.526-.24-.41-.515-.871-.816-1.348a13.9,13.9,0,0,1-3.775-.917c-1.808-.723-5.09-2.354-3.869-4.838,1.468-2.988,4.846-.913,6.444.608a23.294,23.294,0,0,1,2.453,2.756,12.913,12.913,0,0,0,10.462-4.573c-.124-.5-.254-1-.367-1.494-1.043-4.614-2.578-10.842.485-14.938.917-1.229,2.467-1.467,3.719.2,1.409,1.873,1.621,4.756,1.578,6.967a18,18,0,0,1-2.708,9.191c.087.314.17.615.247.9a57.089,57.089,0,0,0,6.511,15.92,21.6,21.6,0,0,0,6.467-4.73c2.1-2.316,1.434-2.489,2.441-5.835.626-2.077,1.451-4.585,1.761-5.506,1.371-4.071,2.638-8.185,3.64-12.365,2.019-8.427,3.018-17.352,1.127-25.9A36.839,36.839,0,0,0,69.414,23.624C56.745,21.288,41.844,26.5,33,35.8A30.424,30.424,0,0,0,24.82,53.97c-.651,6.732-.547,14.358,1.585,20.821M59.881,93.144c-.4-.454-.814-1.236-1.7-1.293-.7-.045-.472.315-.2.476a7.6,7.6,0,0,0,1.906.817" transform="translate(-16.364 -15.354)" fill="#603226"/>
          <path id="Trazado_1012889" data-name="Trazado 1012889" d="M287.613,102.957c2.762.031,4.479,3.179,5.734,5.2a29.706,29.706,0,0,1,4.085,15.535c-.075,3.541-1.109,10.118-5.557,10.732-5.349.737-3.047-6.118-2.658-8.752a23.039,23.039,0,0,0-.977-11.362c-.979-2.632-3.258-4.89-3.827-7.661a3.006,3.006,0,0,1,3.2-3.695m-1.6,4.81c1,2.152,2.488,3.992,3.318,6.245a22.457,22.457,0,0,1,1.309,8.048,28.871,28.871,0,0,1-.332,3.915c-.239,1.586-.885,3.194-.98,4.786-.22,3.669,3.632,2.711,4.992.617a14.825,14.825,0,0,0,1.986-7.685,28.589,28.589,0,0,0-3.932-14.965,15.74,15.74,0,0,0-2.75-3.709c-.832-.724-2.4-1.369-3.422-.549-1.213.97-.664,2.278-.19,3.3" transform="translate(-218.484 -79.112)" fill="#603226"/>
          <path id="Trazado_1012890" data-name="Trazado 1012890" d="M245.872,71.284a6.035,6.035,0,0,1,3.094,2.14,4.283,4.283,0,0,1-.454,5.459,5.151,5.151,0,0,1-5.281.79c-2.03-.746-3.976-2.777-3.529-5.1.489-2.54,3.858-3.911,6.17-3.286m1.718,6.824a2.9,2.9,0,0,0,.416-4.062,4.892,4.892,0,0,0-1.541-1.315c-1.791-.958-4.978-.313-5.611,1.863-.985,3.387,4.225,5.463,6.736,3.515" transform="translate(-184.137 -54.66)" fill="#603226"/>
          <path id="Trazado_1012891" data-name="Trazado 1012891" d="M60.127,111.3c.73-.661,1.6-.091,1.005.813A34.652,34.652,0,0,0,55.168,128.6c-.506,6,1.2,11.053,3.39,16.519.534,1.335-1.363,2.088-2.092,1.127-8.046-10.6-5.062-27.055,3.661-34.942" transform="translate(-39.777 -85.305)" fill="#603226"/>
          <path id="Trazado_1012892" data-name="Trazado 1012892" d="M79.98,267.231c2.19.3,3,4.263,1.949,4.888s-3.96-2.083-3.2-4.175a1.062,1.062,0,0,1,1.256-.713" transform="translate(-60.397 -205.327)" fill="#603226"/>
        </g>
      </g>
    </g>
  </g>
</svg>
