<svg xmlns="http://www.w3.org/2000/svg" xmlns:xlink="http://www.w3.org/1999/xlink" width="97.602" height="101.93" viewBox="0 0 97.602 101.93">
  <defs>
    <clipPath id="clip-path">
      <rect id="Rectángulo_418128" data-name="Rectángulo 418128" width="92.008" height="87.038" fill="none"/>
    </clipPath>
    <clipPath id="clip-path-3">
      <rect id="Rectángulo_418121" data-name="Rectángulo 418121" width="89.588" height="84.618" fill="none"/>
    </clipPath>
    <clipPath id="clip-path-4">
      <rect id="Rectángulo_418122" data-name="Rectángulo 418122" width="3.258" height="11.318" fill="none"/>
    </clipPath>
    <clipPath id="clip-path-5">
      <rect id="Rectángulo_418123" data-name="Rectángulo 418123" width="6.241" height="2.405" fill="none"/>
    </clipPath>
    <clipPath id="clip-path-6">
      <rect id="Rectángulo_418124" data-name="Rectángulo 418124" width="2.108" height="1.655" fill="none"/>
    </clipPath>
    <clipPath id="clip-path-7">
      <rect id="Rectángulo_418125" data-name="Rectángulo 418125" width="8.852" height="2.164" fill="none"/>
    </clipPath>
    <clipPath id="clip-path-8">
      <rect id="Rectángulo_418126" data-name="Rectángulo 418126" width="1.995" height="1.759" fill="none"/>
    </clipPath>
  </defs>
  <g id="Grupo_1158782" data-name="Grupo 1158782" transform="translate(97.602 10.607) rotate(97)">
    <g id="Grupo_1158697" data-name="Grupo 1158697" clip-path="url(#clip-path)">
      <g id="Grupo_1158696" data-name="Grupo 1158696">
        <g id="Grupo_1158695" data-name="Grupo 1158695" clip-path="url(#clip-path)">
          <g id="Grupo_1158679" data-name="Grupo 1158679" transform="translate(2.42 2.42)" opacity="0.2">
            <g id="Grupo_1158678" data-name="Grupo 1158678">
              <g id="Grupo_1158677" data-name="Grupo 1158677" clip-path="url(#clip-path-3)">
                <path id="Trazado_1012893" data-name="Trazado 1012893" d="M22.76,27.746a5.642,5.642,0,0,0-.89,5.137,8.106,8.106,0,0,0,.778,1.8c.18.181-.024.414-.078.59a22.005,22.005,0,0,0-1.4,5.15,8.265,8.265,0,0,0-3.96,3.519c-.947,2.107-.409,3.909-.118,5.532a45.412,45.412,0,0,0,1.163,5.087c.908,3.18,1.983,4.9,5.637,6.094,4.274,1.319,2.236-.393,2.611,3.875.126,1.983,1.651,4.113,5.019,5.389a30.943,30.943,0,0,0,11.43,3.765c.135,0,.266,0,.394-.013a17.816,17.816,0,0,0,.377,1.755A47.048,47.048,0,0,0,46,82.384a11.221,11.221,0,0,0,1.474,3.132c2.366,2.642,5.067,2.014,7.28,1.858A24.761,24.761,0,0,0,57.888,90.6c-.161,1.882-.294,4.088.92,5.968,1.623,2.353,4.285,2.7,6.356,3.232a52.669,52.669,0,0,0,5.546,1.187,7.2,7.2,0,0,0,4.15-.011c2.522-1.132,3.324-3.241,4.155-4.928,1.11-.291,2.19-.418,3.381-.82,1.045-.347,1.911-.746,2.884-1.135,1.546.956,3.216,2.11,5.5,2.154A5.725,5.725,0,0,0,95.061,94a53.464,53.464,0,0,0,3.824-4.253c1.357-1.627,3.131-3.341,3.468-5.889.288-2.517-1.393-4.725-2.234-5.773a17.064,17.064,0,0,0,.8-3.971c.017-.247.04-.58.074-.825a8.507,8.507,0,0,0,1.5-.687c2.762-1.514,4.744-4.048,3.268-7.84a63.287,63.287,0,0,0-2.269-7.015c-1.272-4.145-3.829-5.883-8.57-5.24-.125.019-.149-.083-.268-.192a35.568,35.568,0,0,0-2.78-2.964c-.1-.128-.351-.228-.361-.389a18.2,18.2,0,0,0,.061-2.142c-.085-3.545-1.858-5.5-6.2-6.38a38.032,38.032,0,0,0-8.662-1.677c-3.411.105-4.672,2-5.8,4.093-.182-1.509-.623-2.711-.848-4.117-.4-2.23-.958-5.284-3.591-7.081a32.973,32.973,0,0,0-6.065-3.017c-.066-.04-.229.014-.2-.09a8.19,8.19,0,0,0-.327-4.849c-2.085-4.317-11.665-6.44-12.071-6.529-4.176-1.29-6.968-.069-8.673,3.725-.267.286-.824.15-1.259.3a10.8,10.8,0,0,0-1.391.417,6.4,6.4,0,0,0-4.117-1.738,5.214,5.214,0,0,0-3.451,1.352,38.464,38.464,0,0,0-6.16,6.512M40.984,42.994c.594-1.886,1.606-3.706,3.632-4.484a6.9,6.9,0,0,1,.544,5.316c-.6,2.476-2.046,4.527-3.646,5.255-1.39-1.888-.945-4.584-.53-6.088M76.857,62.522c8.741,1.1,8.826,11.907,1.768,14.522C74.831,78.39,70.3,75.78,68.714,72.16c-2.048-4.93,2.7-10.651,8.144-9.638" transform="translate(-16.677 -16.678)" fill="#603226"/>
              </g>
            </g>
          </g>
          <path id="Trazado_1012894" data-name="Trazado 1012894" d="M89.086,48.085a63.332,63.332,0,0,0-2.269-7.015c-1.272-4.145-3.829-5.883-8.57-5.24-.125.019-.149-.083-.268-.192a35.569,35.569,0,0,0-2.78-2.964c-.1-.128-.35-.228-.361-.389a18.165,18.165,0,0,0,.062-2.143c-.085-3.545-1.859-5.5-6.2-6.38a38.031,38.031,0,0,0-8.662-1.678c-3.411.105-4.672,2-5.8,4.093-.182-1.509-.623-2.711-.848-4.117-.4-2.23-.958-5.284-3.591-7.081a32.965,32.965,0,0,0-6.065-3.017c-.066-.04-.229.014-.2-.09a8.193,8.193,0,0,0-.327-4.849C41.121,2.708,31.541.585,31.135.5c-4.176-1.29-6.968-.069-8.673,3.725-.267.286-.824.15-1.259.3a10.8,10.8,0,0,0-1.391.417A6.4,6.4,0,0,0,15.694,3.2a5.213,5.213,0,0,0-3.451,1.352,38.481,38.481,0,0,0-6.16,6.512,5.642,5.642,0,0,0-.89,5.137A8.11,8.11,0,0,0,5.971,18c.18.181-.023.414-.078.59a22.011,22.011,0,0,0-1.4,5.15A8.266,8.266,0,0,0,.536,27.26c-.947,2.107-.409,3.909-.118,5.532a45.419,45.419,0,0,0,1.163,5.087c.908,3.18,1.983,4.9,5.637,6.094,4.274,1.319,2.236-.393,2.611,3.875.126,1.983,1.651,4.113,5.019,5.389A30.946,30.946,0,0,0,26.278,57c.135,0,.265,0,.394-.013a17.816,17.816,0,0,0,.377,1.755,47.064,47.064,0,0,0,2.273,6.962A11.224,11.224,0,0,0,30.8,68.838c2.366,2.642,5.067,2.014,7.28,1.858a24.781,24.781,0,0,0,3.135,3.228c-.161,1.882-.294,4.088.92,5.968,1.622,2.353,4.284,2.7,6.356,3.233a52.736,52.736,0,0,0,5.546,1.187,7.2,7.2,0,0,0,4.15-.011c2.522-1.132,3.323-3.241,4.155-4.928,1.11-.291,2.19-.418,3.381-.82,1.045-.347,1.911-.746,2.884-1.135,1.546.956,3.216,2.11,5.5,2.154a5.726,5.726,0,0,0,4.281-2.247,53.482,53.482,0,0,0,3.823-4.253c1.357-1.627,3.131-3.341,3.469-5.889.288-2.517-1.393-4.725-2.234-5.773a17.065,17.065,0,0,0,.8-3.971c.017-.247.04-.58.074-.825a8.513,8.513,0,0,0,1.5-.687c2.762-1.514,4.744-4.048,3.268-7.84m-60.6-20.937c-.6,2.476-2.046,4.527-3.646,5.255-1.39-1.888-.945-4.584-.53-6.088.594-1.886,1.606-3.706,3.632-4.484a6.9,6.9,0,0,1,.544,5.316M61.948,60.366c-3.794,1.346-8.329-1.264-9.911-4.884-2.048-4.93,2.7-10.651,8.144-9.638,8.741,1.1,8.826,11.907,1.768,14.522" transform="translate(0 0)" fill="#fffeee"/>
          <g id="Grupo_1158682" data-name="Grupo 1158682" transform="translate(33.461 17.056)" opacity="0.5">
            <g id="Grupo_1158681" data-name="Grupo 1158681">
              <g id="Grupo_1158680" data-name="Grupo 1158680" clip-path="url(#clip-path-4)">
                <path id="Trazado_1012895" data-name="Trazado 1012895" d="M230.728,118.631a19.608,19.608,0,0,1,.808,9.113c-.334,1.365.756,1.492,1.507.3,1.662-2.63.558-7.683-1.327-10.045-.73-.915-1.408-.338-.988.629" transform="translate(-230.599 -117.543)" fill="#fff"/>
              </g>
            </g>
          </g>
          <g id="Grupo_1158685" data-name="Grupo 1158685" transform="translate(18.243 37.188)" opacity="0.5">
            <g id="Grupo_1158684" data-name="Grupo 1158684">
              <g id="Grupo_1158683" data-name="Grupo 1158683" clip-path="url(#clip-path-5)">
                <path id="Trazado_1012896" data-name="Trazado 1012896" d="M131.569,257.1a7.25,7.25,0,0,0-2.147-.065,6.326,6.326,0,0,1-2.742-.6c-1.223-.539-1.054.485-.688.891,1.264,1.4,4.167,1.876,5.707.674.349-.272.4-.755-.131-.9" transform="translate(-125.724 -256.282)" fill="#fff"/>
              </g>
            </g>
          </g>
          <g id="Grupo_1158688" data-name="Grupo 1158688" transform="translate(25.193 37.317)" opacity="0.5">
            <g id="Grupo_1158687" data-name="Grupo 1158687">
              <g id="Grupo_1158686" data-name="Grupo 1158686" clip-path="url(#clip-path-6)">
                <path id="Trazado_1012897" data-name="Trazado 1012897" d="M175.379,257.29a1.28,1.28,0,0,0-1.18.065c-.352.181-.734.63-.513,1.024a1.207,1.207,0,0,0,1.951-.1.725.725,0,0,0-.259-.986" transform="translate(-173.621 -257.174)" fill="#fff"/>
              </g>
            </g>
          </g>
          <g id="Grupo_1158691" data-name="Grupo 1158691" transform="translate(55.664 66.48)" opacity="0.5">
            <g id="Grupo_1158690" data-name="Grupo 1158690">
              <g id="Grupo_1158689" data-name="Grupo 1158689" clip-path="url(#clip-path-7)">
                <path id="Trazado_1012898" data-name="Trazado 1012898" d="M391.819,458.33c-1.234.079-2.439.2-3.671.251a21.918,21.918,0,0,1-3.671-.409c-1.026-.135-1.153.643-.3,1.124a8.356,8.356,0,0,0,7.922.051c.472-.277.6-1.073-.275-1.016" transform="translate(-383.612 -458.156)" fill="#fff"/>
              </g>
            </g>
          </g>
          <g id="Grupo_1158694" data-name="Grupo 1158694" transform="translate(65.018 65.452)" opacity="0.5">
            <g id="Grupo_1158693" data-name="Grupo 1158693">
              <g id="Grupo_1158692" data-name="Grupo 1158692" clip-path="url(#clip-path-8)">
                <path id="Trazado_1012899" data-name="Trazado 1012899" d="M449.348,451.069a1.363,1.363,0,0,0-1.266,1.051.675.675,0,0,0,.319.554,1.011,1.011,0,0,0,1.031.025,1.068,1.068,0,0,0,.644-.9.731.731,0,0,0-.728-.728" transform="translate(-448.082 -451.069)" fill="#fff"/>
              </g>
            </g>
          </g>
          <path id="Trazado_1012900" data-name="Trazado 1012900" d="M336.574,282.469c-7.98-1.577-15.887,4.937-14.852,13.307.937,7.576,9.922,13,16.973,10.335a10.722,10.722,0,0,0,6.593-5.3,13.556,13.556,0,0,0,.672-10.723,12.229,12.229,0,0,0-9.386-7.62m1.373,22.01c-5.261,1.93-11.552-1.465-13.724-6.528a9.956,9.956,0,0,1,1.436-9.851,10.343,10.343,0,0,1,9.9-3.967,10.6,10.6,0,0,1,8.9,6.845,10.811,10.811,0,0,1-6.512,13.5" transform="translate(-274.96 -241.279)" fill="#603226"/>
          <path id="Trazado_1012901" data-name="Trazado 1012901" d="M116.147,109.5c-9.062-2.738-15.217,10.544-10.417,17.356a8.446,8.446,0,0,0,7.572,3.538c4.436-.458,7.5-4.771,8.39-8.839,1.071-4.873-.206-10.522-5.545-12.055m-10.583,12.988c-.756-5.891,3.668-13.337,9.93-11.7-3.134.805-5.657,4.58-6.522,7.315-1.308,4.132-1.08,7.364,1.051,10.417a7.059,7.059,0,0,1-4.458-6.034m8.319,6.36c-1.05.248-1.262.045-1.928-.652-2.384-2.5-2.5-6.117-1.6-9.386A11.243,11.243,0,0,1,113,114.13a8.127,8.127,0,0,1,3.208-1.965c1.045-.364,1.646-.344,2.074.019,4.98,4.238,1.79,15.2-4.4,16.663" transform="translate(-88.956 -93.296)" fill="#603226"/>
          <path id="Trazado_1012902" data-name="Trazado 1012902" d="M103.815,66.133a47.5,47.5,0,0,0-1.788-5.579c-.5-1.276-.913-3.1-2.218-3.743-1.146-.566-2.493-.256-3.7-.225a2.916,2.916,0,0,1-2.576-1.175,35.515,35.515,0,0,0-2.558-2.744c-1.011-.9-1.425-1.274-1.369-2.756.023-.625.1-1.222.064-1.853-.066-1.124-.194-2.216-1.262-2.766a16.226,16.226,0,0,0-2.786-.9,42.9,42.9,0,0,0-6.857-1.485c-1.764-.22-2.568.035-3.594,1.54-.476.7-.711,1.515-1.147,2.215C73.34,47.764,72,47.685,70.839,48c-1.808.485-4.231,2.045-6.145,1.846a2.008,2.008,0,0,1,.916-1.323c.37-.235.858-.34,1.247-.566a5,5,0,0,0,2.006-1.75c.6-1.264-.239-3.7-.5-4.981-.413-2.047-.643-4.75-2.488-6.009a36.058,36.058,0,0,0-4.95-2.549,3.38,3.38,0,0,0-1.1.011A10.342,10.342,0,0,1,58.5,31.461c-.6-.767-.3-1.494-.16-2.338a5.646,5.646,0,0,0-.067-3.047c-.987-2.045-6.416-4.115-9.994-4.891-1.029-.224-2.539-.729-3.531-.206a5.35,5.35,0,0,0-1.808,2.344,5.533,5.533,0,0,1-.447,1.016c-.659.738-1.969.683-2.872.876-.772.165-1.545.566-2.308.7-.8.14-.9-.25-1.453-.744-1.25-1.124-2.524-1.747-3.854-.595a35,35,0,0,0-5.676,5.978,2.678,2.678,0,0,0-.438,2.6c.214.792.847,1.54,1.027,2.3.2.833-.456,1.936-.711,2.677a25.519,25.519,0,0,0-.74,2.625c-.223.985-.186,2.087-.895,2.8a5.622,5.622,0,0,1-1.4.866A5.141,5.141,0,0,0,21.042,46.3c-.523,1.09-.051,2.59.138,3.736a42.778,42.778,0,0,0,1.088,4.75c.7,2.456,1.216,3.253,3.669,4.053a11.453,11.453,0,0,0,3.5.656c.276.285.558.564.855.83.807.721.682,1.115.535,2.141a11.266,11.266,0,0,0-.215,2.8c.14,1.321,1.24,2.105,2.574,2.616.566.291,1.125.542,1.543.768a26.716,26.716,0,0,0,6.8,2.567c1.483.339,3.108,1.055,4.229-.249a18.426,18.426,0,0,0,1.41-2.439c.978-1.551,3.395-1.548,5.107-2.012.224.127.451.249.675.369,0,.025-.008.049-.011.074-.179,1.4-.267,2.343-1.661,3.154-1.165.678-2.508,1.079-3.379,2.2-.843,1.086-.418,2.235-.127,3.477A44.332,44.332,0,0,0,49.9,82.31a11.7,11.7,0,0,0,1.029,2.374c.727.9,2.04.918,3.121.9.563-.012,1.123-.153,1.679-.163,1.93-.038,2.361,1.073,3.427,2.256.676.75,1.55,1.352,2.2,2.106a2.9,2.9,0,0,1,.609,2.583,6.166,6.166,0,0,0,.469,3.611c.857,1.3,3.253,1.6,4.63,1.979A50.117,50.117,0,0,0,72.3,99.07a5.425,5.425,0,0,0,2.564.16c1.021-.4,1.735-1.778,2.2-2.691.49-.969.645-1.847,1.911-2.237,1.167-.36,2.409-.486,3.583-.876.915-.3,1.782-.7,2.675-1.057,1.529-.612,2.29-.085,3.454.659.938.6,2.425,1.444,3.6,1.23.738-.135,1.244-.813,1.75-1.322a51.052,51.052,0,0,0,3.611-4.015c.935-1.164,2.647-2.8,2.823-4.344.148-1.291-.945-2.742-1.692-3.669-1.228-1.521-.167-3.079.139-4.846.231-1.329-.055-3.242,1.238-4.113.539-.363,1.31-.513,1.887-.863.843-.513,2.125-1.3,2.3-2.362a7.358,7.358,0,0,0-.517-2.59M64.885,36.255c1.742,1.125,1.971,4.457,2.312,6.372.085.473.247,1.043.336,1.594.224,1.379-.087,2.034-2.37,2.964a2.7,2.7,0,0,0-1.837,2.134,7.514,7.514,0,0,0-3.385-1.478c.168-1.132,1.3-1.855,2.628-2.6a3.512,3.512,0,0,0,1.918-2.189,14.087,14.087,0,0,0-.609-4.178,33,33,0,0,0-.713-3.634c.6.32,1.182.67,1.719,1.016M54.344,27.771c.013-.2.135-.409.16-.614.063-.51.151-1.01.172-1.526.007-.162.014-.344.017-.534a17.127,17.127,0,0,1,1.7,1.095c.83.6.718,1.112.62,2.172a14.2,14.2,0,0,0-.418,2.554M45.977,67.594c-.366.849-.653,2.176-1.445,2.639a4.446,4.446,0,0,1-1.722-.183,30.339,30.339,0,0,1-3.2-.822,2.575,2.575,0,0,0,2.051-1.393c.436-.654.639-1.588,1-2.112.413-.6.651-.638,1.651-.967a23.472,23.472,0,0,1,3.677-.741c.459-.051.544.088,1.047.482.405.317.826.7,1.285,1.014-3.038.377-3.787.778-4.347,2.083m4.65-3.953c-.681-.548-1.1-1.362-2.036-1.5-1-.142-2.176.581-3.148.805-1.1.254-2.532.066-3.46.807-.687.549-1.677,2.973-1.9,3.392-.636,1.19-1.019.972-2.271.664-1.758-.433-5.051-1.682-5.477-2.439-.31-.553.024-1.961.158-2.552.212-.929.548-1.77.021-2.667-.723-1.227-2.231-2.139-3.111-3.3-.59-.779-1.027-1.423-2.092-1.419a8.8,8.8,0,0,0-1.546.276c-1.015.189-1.558-.308-1.916-1.581s-.674-2.581-.914-3.891c-.146-.8-.668-2.51-.286-3.3.206-.429.987-.831,1.389-1.054a6.906,6.906,0,0,0,2.059-1.141c.924-1.032.844-2.915,1.171-4.206.538-2.12,2.031-4.072.971-6.164-.494-.975-1.073-1.89-.5-2.871a19.041,19.041,0,0,1,3.081-3.49c.706-.708,1.437-1.39,2.185-2.054.4-.353.69-.4,1.239.059.248.209.484.413.557.48.621.577,1.048,1.271,1.992,1.289,1.3.025,2.784-.881,4.1-1.077.966-.143,1.922-.067,2.635-.832a9.71,9.71,0,0,0,1.069-2.06c.408-.734.571-1.094,1.394-1.22a6.722,6.722,0,0,1,2.444.365,32.8,32.8,0,0,1,3.878,1.221c1,.378.694.231.673,1.242-.02.972-.428,1.866-.455,2.816-.042,1.489,1.11,2.027,2.068,2.977.7.69,1.563,1.627,2.289,2.359a2.051,2.051,0,0,0,1.821.832c.28-.042.564-.095.856-.113.839-.052,1.248-.06,1.586.774a17.214,17.214,0,0,1,.663,2.316c.344,1.4.611,2.819.818,4.245a4.478,4.478,0,0,1,.151,1.134c-.066.438.021.188-.366.544-.887.815-2.055.928-2.961,1.63-1,.777-1.07,2.282-1.273,3.508a18.506,18.506,0,0,0-2.672,2.838,53.958,53.958,0,0,0-3.684,4.671c-.538.759-.943,1.273-.7,2.247a6.821,6.821,0,0,0,1.054,2.063c.412.609,1.556,1.531,1.665,2.317-.991.982-1.9,2.123-3.218,1.059m51.285,5.489c-1.071.77-2.529.972-3.51,1.786-1.321,1.1-.879,3.187-1.13,4.694-.265,1.589-1.5,3.532-.776,5.109.436.95,1.362,1.652,1.861,2.595.587,1.111.1,1.652-.581,2.625-.649.926-1.349,1.816-2.08,2.679-.982,1.16-2.02,2.272-3.1,3.344-.557.555-.689.865-1.5.488-.482-.225-1.012-.564-1.227-.689-1.129-.66-1.966-1.892-3.419-1.714a7.609,7.609,0,0,0-2.085.856,23.459,23.459,0,0,1-3.538,1.269c-1.4.379-3.414.23-4.372,1.511-.72.962-.86,2.213-1.555,3.213-.679.974-.74.778-2.543.473-1.63-.275-3.249-.618-4.843-1.054a15.887,15.887,0,0,1-2.629-.823c-1.22-.582-1.286-1.158-1.261-2.415.025-1.237.607-2.489-.148-3.623a15.8,15.8,0,0,0-2.26-2.08c-.876-.863-1.551-1.875-2.36-2.787-1.2-1.359-2.177-1.021-3.8-.778a6.491,6.491,0,0,1-2.364.006c-.475-.122-.264.088-.576-.571a41.023,41.023,0,0,1-1.864-4.877c-.355-1.1-.671-2.211-.924-3.337a2.027,2.027,0,0,1,1.155-2.635c1.106-.682,2.742-.791,3.515-1.907a5.194,5.194,0,0,0,.528-2.634,21.777,21.777,0,0,1,.772-3.975c.254-.891.4-.821.163-1.829a4.568,4.568,0,0,0-1.254-1.887c-.623-.7-1.6-1.9-1.341-2.752.324-1.057,1.7-2.359,2.37-3.189a28.565,28.565,0,0,1,3.17-3.722c.766-.662,1.312-1.045,2.3-.736a9.593,9.593,0,0,1,2.492,1.593c1.2.878,2.165.637,3.422.038a27.242,27.242,0,0,1,6.439-2.162,2.9,2.9,0,0,0,2.524-1.916,11.948,11.948,0,0,1,.811-1.644c.589-.94.687-1.117,1.69-1.142,2.121-.052,9.394,1.832,9.8,2.382.558.747-.086,2.852-.147,3.711-.124,1.751,1.078,2.369,2.254,3.45a20.153,20.153,0,0,1,2.125,2.292c.554.7,1,1.549,1.85,1.919,1,.433,2.045-.034,3.075-.094a3.993,3.993,0,0,1,1.871.1c.872.494,1.329,2.347,1.683,3.281a47.854,47.854,0,0,1,1.569,5.011,6.646,6.646,0,0,1,.351,1.434c.006.741.166.548-.618,1.112" transform="translate(-17.785 -17.738)" fill="#603226"/>
          <path id="Trazado_1012903" data-name="Trazado 1012903" d="M258.994,308a19.86,19.86,0,0,0-1.349,8.434.334.334,0,0,0,.667,0c.054-2.811-.043-5.62,1.012-8.253.16-.4-.168-.567-.331-.182" transform="translate(-220.251 -263.126)" fill="#603226"/>
          <path id="Trazado_1012904" data-name="Trazado 1012904" d="M326.875,510.707c-1.221-.426-2.328-.732-3.449-1.107-.722-.242-1.5-.414-1.859-1.192a6.787,6.787,0,0,1-.284-2c-.032-.389-.321-.478-.406-.088-.459,2.1-.409,2.731.676,3.409a27.513,27.513,0,0,0,5.031,1.67c.792.182,1.1-.408.291-.691" transform="translate(-274.082 -432.634)" fill="#603226"/>
          <path id="Trazado_1012905" data-name="Trazado 1012905" d="M369.975,539.7c-.207-.155-.656-.177-.693.146-.048.408.262.52.619.377.178-.071.317-.2.246-.36a.729.729,0,0,0-.172-.163" transform="translate(-315.694 -461.297)" fill="#603226"/>
          <path id="Trazado_1012906" data-name="Trazado 1012906" d="M39.253,208.158a19.013,19.013,0,0,1-1.144-4.825c-.038-.388-.423-.349-.393.049a16.188,16.188,0,0,0,.922,4.945c.149.374.76.217.615-.169" transform="translate(-32.242 -173.597)" fill="#603226"/>
          <path id="Trazado_1012907" data-name="Trazado 1012907" d="M46.71,242.451a.347.347,0,0,0-.32.473c.04.127.244.422.418.421.274,0,.285-.449.227-.652a.321.321,0,0,0-.325-.242" transform="translate(-39.642 -207.27)" fill="#603226"/>
          <path id="Trazado_1012908" data-name="Trazado 1012908" d="M554.365,290.457a16.021,16.021,0,0,0-1.707-4.241c-.409-.621-.788-.5-.59.248a23.677,23.677,0,0,0,1.657,4.168c.277.557.824.447.64-.176" transform="translate(-471.914 -244.343)" fill="#603226"/>
          <path id="Trazado_1012909" data-name="Trazado 1012909" d="M566.2,323.641a.529.529,0,0,0,0,1.057.529.529,0,0,0,0-1.057" transform="translate(-483.607 -276.679)" fill="#603226"/>
        </g>
      </g>
    </g>
  </g>
</svg>
