<svg xmlns="http://www.w3.org/2000/svg" width="63.676" height="63.676" viewBox="0 0 63.676 63.676"><g transform="translate(-714.65 -1285.868)"><g transform="translate(714.975 1285.894)"><g transform="translate(0 0)"><path d="M31.838,0A31.838,31.838,0,1,1,0,31.838,31.838,31.838,0,0,1,31.838,0Z" transform="translate(-0.324 -0.025)" fill="#b671fc"/><circle cx="27.467" cy="27.467" r="27.467" transform="translate(3.676 3.974)" fill="#fff"/></g></g><g transform="translate(702.39 1291.747)"><g transform="translate(32.12 8.88)"><path d="M53.689,51.712H34.507a2.39,2.39,0,0,1-2.387-2.387V22.381a2.39,2.39,0,0,1,2.387-2.387H39.33a.391.391,0,0,1,0,.782H34.507a1.607,1.607,0,0,0-1.605,1.6V49.325a1.607,1.607,0,0,0,1.605,1.605H53.689a1.607,1.607,0,0,0,1.605-1.605V22.381a1.606,1.606,0,0,0-1.605-1.6H48.866a.391.391,0,1,1,0-.782h4.823a2.39,2.39,0,0,1,2.387,2.387V49.325a2.39,2.39,0,0,1-2.387,2.387Z" transform="translate(-32.12 -17.555)" fill="#b671fc" fill-rule="evenodd"/><path d="M65.855,9.662a1.885,1.885,0,0,0-1.882,1.882v1.608a.278.278,0,0,0,.274.274h8.205a.275.275,0,0,0,.274-.274V11.544a1.885,1.885,0,0,0-1.882-1.882Zm6.6,4.546H64.247a1.058,1.058,0,0,1-1.057-1.056V11.544A2.667,2.667,0,0,1,65.855,8.88h4.99a2.667,2.667,0,0,1,2.664,2.664v1.608A1.058,1.058,0,0,1,72.453,14.208Z" transform="translate(-56.372 -8.88)" fill="#b671fc" fill-rule="evenodd"/><path d="M81.835,20.02H79.119a.391.391,0,1,1,0-.782h2.717a.391.391,0,1,1,0,.782Z" transform="translate(-68.499 -16.964)" fill="#b671fc" fill-rule="evenodd"/><path d="M47.427,48.094h2.433V45.66H47.427Zm2.825.782H47.036a.391.391,0,0,1-.391-.391V45.27a.391.391,0,0,1,.391-.391h3.216a.391.391,0,0,1,.391.391v3.215A.391.391,0,0,1,50.252,48.876Z" transform="translate(-43.457 -36.978)" fill="#b671fc" fill-rule="evenodd"/><path d="M47.427,76.808h2.433V74.374H47.427Zm2.825.782H47.036a.391.391,0,0,1-.391-.39V73.983a.391.391,0,0,1,.391-.391h3.216a.391.391,0,0,1,.391.391V77.2A.391.391,0,0,1,50.252,77.589Z" transform="translate(-43.457 -59.39)" fill="#b671fc" fill-rule="evenodd"/><path d="M47.427,105.521h2.433v-2.433H47.427Zm2.825.782H47.036a.391.391,0,0,1-.391-.391V102.7a.391.391,0,0,1,.391-.391h3.216a.391.391,0,0,1,.391.391v3.216A.391.391,0,0,1,50.252,106.3Z" transform="translate(-43.457 -81.801)" fill="#b671fc" fill-rule="evenodd"/><path d="M47.427,134.234h2.433V131.8H47.427Zm2.825.782H47.036a.391.391,0,0,1-.391-.391v-3.216a.391.391,0,0,1,.391-.391h3.216a.391.391,0,0,1,.391.391v3.216A.391.391,0,0,1,50.252,135.016Z" transform="translate(-43.457 -104.213)" fill="#b671fc" fill-rule="evenodd"/><path d="M86.375,53.869H76.34a.391.391,0,1,1,0-.782H86.375a.391.391,0,0,1,0,.782Z" transform="translate(-66.33 -43.385)" fill="#b671fc" fill-rule="evenodd"/><path d="M86.375,81.7H76.34a.391.391,0,1,1,0-.782H86.375a.391.391,0,0,1,0,.782Z" transform="translate(-66.33 -65.108)" fill="#b671fc" fill-rule="evenodd"/><path d="M87.891,110.413H77.856a.391.391,0,1,1,0-.782H87.891a.391.391,0,0,1,0,.782Z" transform="translate(-67.513 -87.519)" fill="#b671fc" fill-rule="evenodd"/><path d="M87.891,139.126H77.856a.391.391,0,1,1,0-.782H87.891a.391.391,0,0,1,0,.782Z" transform="translate(-67.513 -109.931)" fill="#b671fc" fill-rule="evenodd"/></g></g></g></svg>