<svg xmlns="http://www.w3.org/2000/svg" width="67.422" height="67.658" viewBox="0 0 67.422 67.658"><path d="M246.367,8.6A1.331,1.331,0,0,0,247.7,7.267V1.331a1.331,1.331,0,0,0-2.662,0V7.267A1.331,1.331,0,0,0,246.367,8.6Z" transform="translate(-212.774 0)" fill="#acda53"/><path d="M67.018,117.018l-2.351-2.344a4.457,4.457,0,0,0-5.273-.752l-4.43-4.425.216-.216a4.619,4.619,0,0,0,0-6.522,4.568,4.568,0,0,0-2.317-1.253,4.648,4.648,0,0,0,.184-1.295A4.608,4.608,0,0,0,49.38,95.7a4.647,4.647,0,0,0,.184-1.295A4.6,4.6,0,0,0,45.9,89.89a4.606,4.606,0,0,0-4.922-5.878L32.2,82.35c-1.339-.254-3.011-.422-4.066.541a2.4,2.4,0,0,0-.2.209,4.628,4.628,0,0,0-4.856,1.068,4.579,4.579,0,0,0-1.348,3.263,4.653,4.653,0,0,0,.183,1.295,4.609,4.609,0,0,0-3.665,4.509,4.64,4.64,0,0,0,.184,1.3,4.615,4.615,0,0,0-2.861,7.121,4.612,4.612,0,0,0-1.772,7.629l.215.214L9.578,113.92a4.45,4.45,0,0,0-5.034.872l-2.352,2.346a4.446,4.446,0,0,0,0,6.278l2.936,2.932a1.331,1.331,0,1,0,1.881-1.883l-2.936-2.932a1.784,1.784,0,0,1,0-2.511l2.353-2.346a1.782,1.782,0,0,1,2.171-.266,1.342,1.342,0,0,0,.167.2,1.324,1.324,0,0,0,.382.266l13.491,13.471a1.311,1.311,0,0,0,.642.648,1.781,1.781,0,0,1-.074,2.43l-2.35,2.347a1.788,1.788,0,0,1-2.516,0L15.4,132.844a1.331,1.331,0,0,0-1.882,1.882l2.938,2.938a4.456,4.456,0,0,0,6.276,0l2.352-2.349a4.45,4.45,0,0,0,.623-5.5l4.987-4.981.016-.016c.571-.59,2.161-.48,3.7-.373a19.141,19.141,0,0,0,3.5.023l5.461,5.454a4.448,4.448,0,0,0,.755,5.269l2.352,2.349a4.45,4.45,0,0,0,6.277,0L67.019,123.3a4.445,4.445,0,0,0,0-6.279ZM31.7,84.966l5.773,1.093-3.455,3.454a8.389,8.389,0,0,1-2.071-1.5,6.123,6.123,0,0,1-1.959-3.025h0a1.164,1.164,0,0,1-.006-.131,4.51,4.51,0,0,1,1.718.116Zm-6.747,1.085a1.963,1.963,0,0,1,2.483-.235,9.519,9.519,0,0,0,2.671,4.115,9.856,9.856,0,0,0,3.834,2.376A1.953,1.953,0,0,1,30.956,94.8h0l-6-5.991a1.96,1.96,0,0,1,0-2.758Zm-3.478,5.807a1.963,1.963,0,0,1,2.765,0l4.833,4.823a1.956,1.956,0,0,1-2.768,2.764h0l-3.666-3.666-.018-.017-1.147-1.146a1.953,1.953,0,0,1,0-2.76Zm-3.484,5.806a1.969,1.969,0,0,1,2.756-.009l3.678,3.676a1.953,1.953,0,0,1-2.768,2.757l-1.333-1.332h0l-2.332-2.329a1.958,1.958,0,0,1,0-2.762Zm-2.318,6.975a1.967,1.967,0,0,1,2.769,0l1.335,1.333a1.953,1.953,0,0,1-2.769,2.756l-.167-.166-.006-.007-.008-.007L15.675,107.4a1.954,1.954,0,0,1,0-2.76Zm27.121,15.125a1.331,1.331,0,0,0-1.882,0l-1.184,1.183c-1.125,1.125-3.164.983-5.135.847-2.141-.149-4.355-.3-5.787,1.168l-4.9,4.9-12.258-12.24,4.338-4.33a4.615,4.615,0,0,0,7.025-3.936c0-.011,0-.023,0-.034h.034a4.6,4.6,0,0,0,4.614-4.608c0-.012,0-.023,0-.034h.035A4.6,4.6,0,0,0,32.3,98.032h.036a4.617,4.617,0,0,0,3.939-7.017l3.8-3.8a1.952,1.952,0,0,1,1-.532c.04,0,.079-.011.117-.018a1.95,1.95,0,0,1,1.657,3.31L41.7,91.128l-.012.011-1.334,1.331a1.331,1.331,0,1,0,1.881,1.883l1.163-1.161h0l.176-.175a1.96,1.96,0,0,1,2.762.007,1.953,1.953,0,0,1,0,2.759l-1.165,1.167h0l-1.334,1.328a1.331,1.331,0,0,0,1.878,1.886l1.34-1.334a1.953,1.953,0,0,1,2.764,2.761l-2.322,2.323a1.331,1.331,0,1,0,1.882,1.882l1.138-1.138.02-.018A1.953,1.953,0,0,1,53.3,107.4l-1.157,1.156h0L50.3,110.39a1.331,1.331,0,0,0,1.881,1.883l.9-.9,4.3,4.3L45.128,127.919l-4.392-4.386a5.233,5.233,0,0,0,.874-.7l1.183-1.182a1.33,1.33,0,0,0,0-1.882Zm22.343,1.648L50.874,135.66a1.789,1.789,0,0,1-2.515,0l-2.352-2.349a1.78,1.78,0,0,1,0-2.508l14.264-14.247a1.789,1.789,0,0,1,2.516,0l2.351,2.344a1.784,1.784,0,0,1,0,2.512Z" transform="translate(-0.894 -71.297)" fill="#acda53"/><path d="M86.963,9.858a1.331,1.331,0,0,0,1.88-1.884l-4.849-4.84a1.331,1.331,0,0,0-1.88,1.884Z" transform="translate(-71.042 -2.382)" fill="#acda53"/><path d="M372.982,10.247a1.327,1.327,0,0,0,.941-.389l4.846-4.84a1.331,1.331,0,0,0-1.881-1.883l-4.846,4.84a1.331,1.331,0,0,0,.94,2.272Z" transform="translate(-322.657 -2.382)" fill="#acda53"/><path d="M60.312,430.591a1.331,1.331,0,0,0,.016,1.882l0,0a1.331,1.331,0,1,0-.02-1.886Z" transform="translate(-52.129 -373.345)" fill="#acda53"/><path d="M333.844,334.78a1.331,1.331,0,1,0-.6-2.52l-.007,0a1.33,1.33,0,0,0,.605,2.516Z" transform="translate(-288.688 -288.23)" fill="#acda53"/></svg>