<svg xmlns="http://www.w3.org/2000/svg" xmlns:xlink="http://www.w3.org/1999/xlink" width="119" height="119" viewBox="0 0 119 119"><defs><linearGradient id="a" x1="-0.79" y1="0.438" x2="1.168" y2="0.5" gradientUnits="objectBoundingBox"><stop offset="0" stop-color="#8477fc"/><stop offset="1" stop-color="#cdc8fd"/></linearGradient></defs><g transform="translate(-1108.5 -1355.8)"><g transform="translate(1108.942 1355.8)"><path d="M59.5,0A59.5,59.5,0,1,1,0,59.5,59.5,59.5,0,0,1,59.5,0Z" transform="translate(-0.442)" fill="url(#a)"/><circle cx="49.5" cy="49.5" r="49.5" transform="translate(9.558 10)" fill="#fff"/></g><g transform="translate(1138.051 1382)"><path d="M64,32a31.792,31.792,0,0,0-4.521-16.374c-.011-.026-.029-.047-.042-.073A31.992,31.992,0,0,0,0,32c0,.331.013.661.023.991v.016a31.907,31.907,0,0,0,7.6,19.718A2.994,2.994,0,0,0,7,54.562V63a1,1,0,0,0,1,1H56a1,1,0,0,0,1-1V54.562a3,3,0,0,0-.628-1.837A31.917,31.917,0,0,0,64,32ZM50,28a1,1,0,0,1-1-1V25a1,1,0,0,1,1-1H60.908A29.88,29.88,0,0,1,62,32c0,.67-.03,1.336-.074,2H54a1,1,0,0,1-1-1V31A3,3,0,0,0,50,28Zm6.7-13H40a3,3,0,0,1-3-3,3,3,0,0,0-3-3H27.848a3,3,0,0,1-3-3V2.868A29.953,29.953,0,0,1,56.7,15ZM22.848,3.433V6a5.006,5.006,0,0,0,5,5H34a1,1,0,0,1,1,1,5.006,5.006,0,0,0,5,5H57.964a29.933,29.933,0,0,1,2.316,5H50a3,3,0,0,0-3,3v2a3,3,0,0,0,3,3,1,1,0,0,1,1,1v2a3,3,0,0,0,3,3h7.733a29.9,29.9,0,0,1-7.055,15.639l-4.92-1.23A1,1,0,0,1,49,49.438v-.247a6,6,0,1,0-6,0v.247a1,1,0,0,1-.757.971L39,51.22l-3.243-.81A1,1,0,0,1,35,49.438v-.247a6,6,0,1,0-6,0v.247a1,1,0,0,1-.757.971L25,51.22l-3.242-.81A1,1,0,0,1,21,49.438v-.247a6,6,0,1,0-6,0v.247a1,1,0,0,1-.757.971L9.33,51.637A29.913,29.913,0,0,1,2.074,34H12a3,3,0,0,0,3-3,4,4,0,0,0-4-4H9.744A7.9,7.9,0,0,0,10,25a7.972,7.972,0,0,0-4.442-7.156A30.149,30.149,0,0,1,22.848,3.433ZM4.677,19.637A5.978,5.978,0,0,1,8,25a5.943,5.943,0,0,1-.585,2.57,1,1,0,0,0,.9,1.43H11a2,2,0,0,1,2,2,1,1,0,0,1-1,1H2A29.814,29.814,0,0,1,4.677,19.637ZM9,54.562a1,1,0,0,1,.758-.971l4.97-1.242A3,3,0,0,0,17,49.438v-.86a1,1,0,0,0-.6-.916,4,4,0,1,1,3.2,0,1,1,0,0,0-.6.916v.86a3,3,0,0,0,2.272,2.91l.568.142A2.993,2.993,0,0,0,21,54.562V62H13V59a1,1,0,0,0-2,0v3H9Zm14,0a1,1,0,0,1,.758-.971l4.97-1.242A3,3,0,0,0,31,49.438v-.86a1,1,0,0,0-.6-.916,4,4,0,1,1,3.2,0,1,1,0,0,0-.6.916v.86a3,3,0,0,0,2.272,2.91l4.97,1.242a1,1,0,0,1,.758.972V62H39V59a1,1,0,0,0-2,0v3H27V59a1,1,0,0,0-2,0v3H23ZM55,62H53V59a1,1,0,0,0-2,0v3H43V54.562a2.985,2.985,0,0,0-.841-2.071l.569-.142A3,3,0,0,0,45,49.438v-.86a1,1,0,0,0-.6-.916,4,4,0,1,1,3.2,0,1,1,0,0,0-.6.916v.86a3,3,0,0,0,2.272,2.91l4.969,1.242h0l.01,0a1,1,0,0,1,.747.967Z" fill="#8477fc"/><path d="M22,28h8a5.006,5.006,0,0,0,5-5V21a3,3,0,0,0-3-3H26.07a2.993,2.993,0,0,0-2.5,1.336L22.465,21H22a3,3,0,0,0-3,3v1A3,3,0,0,0,22,28Zm-1-4a1,1,0,0,1,1-1h1a1,1,0,0,0,.832-.445l1.406-2.109A1,1,0,0,1,26.07,20H32a1,1,0,0,1,1,1v2a3,3,0,0,1-3,3H22a1,1,0,0,1-1-1Z" fill="#8477fc"/></g></g></svg>