<svg xmlns="http://www.w3.org/2000/svg" xmlns:xlink="http://www.w3.org/1999/xlink" width="119" height="119" viewBox="0 0 119 119"><defs><linearGradient id="a" x1="-0.79" y1="0.438" x2="1.168" y2="0.5" gradientUnits="objectBoundingBox"><stop offset="0" stop-color="#8477fc"/><stop offset="1" stop-color="#cdc8fd"/></linearGradient></defs><g transform="translate(4986 10244.99)"><g transform="translate(-4985.558 -10244.99)"><path d="M59.5,0A59.5,59.5,0,1,1,0,59.5,59.5,59.5,0,0,1,59.5,0Z" transform="translate(-0.442)" fill="url(#a)"/><circle cx="49.5" cy="49.5" r="49.5" transform="translate(9.558 10)" fill="#fff"/></g><g transform="translate(-4962.316 -10237.873)"><g transform="translate(0 19.252)"><g transform="translate(0 0)"><path d="M144.286,53.4c4.032-.2,6.513-2.8,6.513-6.884a7.9,7.9,0,0,0-.053-.915c2.7-1.727,3.867-4.04,3.867-7.625s-1.163-5.9-3.867-7.625a7.9,7.9,0,0,0,.053-.915c0-4.086-2.481-6.685-6.514-6.884a6.374,6.374,0,0,0-5.636-3.3,4.653,4.653,0,0,0-3.47,1.277q-.14.138-.269.291-.129-.152-.269-.291a4.656,4.656,0,0,0-3.47-1.277,6.375,6.375,0,0,0-5.636,3.3c-4.032.2-6.513,2.8-6.513,6.884a7.934,7.934,0,0,0,.053.915c-2.7,1.727-3.867,4.04-3.867,7.625s1.163,5.9,3.867,7.625a7.905,7.905,0,0,0-.053.915c0,4.086,2.481,6.685,6.514,6.884a6.374,6.374,0,0,0,5.636,3.3h.094a4.621,4.621,0,0,0,3.376-1.277q.14-.138.269-.291.129.152.269.291a4.62,4.62,0,0,0,3.376,1.277h.094A6.375,6.375,0,0,0,144.286,53.4Zm-10.774-3.16a4.613,4.613,0,0,1-.835,3.19,1.949,1.949,0,0,1-1.466.471,3.6,3.6,0,0,1-3.269-1.944,2.241,2.241,0,0,1,.858-.886,2.217,2.217,0,0,1,1.7-.224,1.4,1.4,0,0,0,.726-2.7,5.045,5.045,0,0,0-5.726,2.45c-2.439-.173-3.674-1.543-3.674-4.079a5.1,5.1,0,0,1,.092-.961,1.971,1.971,0,0,0-.949-2.081c-2.183-1.257-2.956-2.7-2.956-5.5s.774-4.241,2.956-5.5a1.972,1.972,0,0,0,.95-2.083,5.087,5.087,0,0,1-.091-.96c0-2.719,1.42-4.1,4.221-4.1h.017c.041,0,.082,0,.122,0a1.594,1.594,0,0,1,.914,1.878,1.4,1.4,0,1,0,2.7.719,4.4,4.4,0,0,0-1.476-4.542,3.7,3.7,0,0,1,2.887-1.338,1.949,1.949,0,0,1,1.466.471,4.613,4.613,0,0,1,.834,3.19Zm9.216-1.5a1.4,1.4,0,1,0-2.7-.719,4.4,4.4,0,0,0,1.476,4.542,3.7,3.7,0,0,1-2.887,1.338,1.941,1.941,0,0,1-1.466-.471,4.613,4.613,0,0,1-.834-3.19V25.712a4.613,4.613,0,0,1,.835-3.19,1.948,1.948,0,0,1,1.466-.471,3.6,3.6,0,0,1,3.269,1.944,2.241,2.241,0,0,1-.858.886,2.216,2.216,0,0,1-1.7.224,1.4,1.4,0,0,0-.726,2.7,5.055,5.055,0,0,0,1.312.174,5.057,5.057,0,0,0,4.414-2.624C146.765,25.53,148,26.9,148,29.436a5.1,5.1,0,0,1-.092.961,1.971,1.971,0,0,0,.949,2.081c2.183,1.257,2.956,2.7,2.956,5.5s-.774,4.241-2.956,5.5a1.972,1.972,0,0,0-.95,2.083,5.088,5.088,0,0,1,.091.96c0,2.719-1.42,4.1-4.221,4.1h-.011c-.043,0-.086,0-.128,0a1.594,1.594,0,0,1-.913-1.878Z" transform="translate(-99.087 -19.252)" fill="#8477fc"/><path d="M174.058,132.583a4.089,4.089,0,0,0-3,6.866q.081.087.165.171a1.4,1.4,0,0,0,1.977-1.981c-.033-.033-.065-.066-.1-.1a1.253,1.253,0,0,1-.233-1.377,1.277,1.277,0,0,1,1.189-.782,1.4,1.4,0,1,0,0-2.8Z" transform="translate(-146.171 -116.723)" fill="#8477fc"/><path d="M304.982,137.641a1.4,1.4,0,0,0,1.977,1.981q.085-.084.166-.171a4.089,4.089,0,0,0-3-6.866,1.4,1.4,0,1,0,0,2.8,1.277,1.277,0,0,1,1.189.782,1.253,1.253,0,0,1-.232,1.376Q305.031,137.592,304.982,137.641Z" transform="translate(-260.359 -116.724)" fill="#8477fc"/><path d="M23.323,107.227l-9.756-9.613V87.265a4.245,4.245,0,0,0-4.241-4.241l-.147,0a4.215,4.215,0,0,0-.71.085V82.077a4.276,4.276,0,0,0-4.038-4.316,4.516,4.516,0,0,0-3.278,1.2A3.487,3.487,0,0,0,.033,81.494c0,3.3-.02,18.677-.034,23.491,0,.114,0,.226,0,.339a12.826,12.826,0,0,0,4.17,9.135q.033.031.068.059l10.912,8.8v11.111a1.4,1.4,0,0,0,1.4,1.4h9.837a1.4,1.4,0,0,0,1.4-1.4V117.9A15.071,15.071,0,0,0,23.323,107.227ZM9.268,85.824h.059a1.443,1.443,0,0,1,1.442,1.442v8.754a4.5,4.5,0,0,0-2.3.223V86.1A1.425,1.425,0,0,1,9.268,85.824ZM24.99,133.031H17.952v-10.38a1.4,1.4,0,0,0-.521-1.089l-11.4-9.193a10.013,10.013,0,0,1-3.234-7.1q0-.139,0-.279c.013-4.815.034-20.2.034-23.5a.706.706,0,0,1,.254-.506A1.721,1.721,0,0,1,4.3,80.557a1.5,1.5,0,0,1,1.37,1.52v17.2A4.543,4.543,0,0,0,6.8,103.671l9.857,10.311a1.4,1.4,0,0,0,2.023-1.934L8.817,101.73l-.015-.015A1.734,1.734,0,0,1,8.786,99.3l.183-.166a1.725,1.725,0,0,1,2.3.149l.015.015,10.072,9.924A12.255,12.255,0,0,1,24.99,117.9v15.135Z" transform="translate(0 -69.569)" fill="#8477fc"/><path d="M341.177,81.494a3.488,3.488,0,0,0-1.121-2.531,4.519,4.519,0,0,0-3.278-1.2,4.276,4.276,0,0,0-4.038,4.316v1.034a4.2,4.2,0,0,0-.708-.085l-.149,0a4.245,4.245,0,0,0-4.241,4.241v10.35l-9.756,9.613a15.072,15.072,0,0,0-4.466,10.67v16.534a1.4,1.4,0,0,0,1.4,1.4h9.837a1.4,1.4,0,0,0,1.4-1.4V123.32l10.912-8.8q.035-.028.068-.059a12.826,12.826,0,0,0,4.17-9.136q0-.168,0-.339c-.013-4.813-.033-20.19-.033-23.491Zm-9.3,4.328h.068a1.423,1.423,0,0,1,.8.28V96.241a4.5,4.5,0,0,0-2.3-.222V87.265A1.442,1.442,0,0,1,331.875,85.823Zm6.535,19.448a10.014,10.014,0,0,1-3.234,7.1l-11.4,9.193a1.4,1.4,0,0,0-.521,1.089v10.38h-7.038V117.9a12.256,12.256,0,0,1,3.631-8.676L329.924,99.3l.015-.015a1.724,1.724,0,0,1,2.3-.15l.184.167a1.734,1.734,0,0,1-.017,2.416l-.012.012-4.971,5.17a1.4,1.4,0,0,0,2.018,1.94l4.966-5.165a4.543,4.543,0,0,0,1.13-4.394v-17.2a1.5,1.5,0,0,1,1.37-1.52,1.72,1.72,0,0,1,1.215.432.706.706,0,0,1,.254.506c0,3.3.02,18.684.034,23.5C338.412,105.086,338.412,105.179,338.41,105.271Z" transform="translate(-269.562 -69.569)" fill="#8477fc"/><path d="M382,316.57a1.4,1.4,0,1,0-.5,1.686A1.41,1.41,0,0,0,382,316.57Z" transform="translate(-326.234 -274.22)" fill="#8477fc"/></g></g></g></g></svg>